<!-- Generated by IcoMoon.io -->
<svg version="1.1" xmlns="http://www.w3.org/2000/svg" width="40" height="32" viewBox="0 0 40 32">
<title>apple-pay</title>
<path d="M7.306 9.906c-0.469 0.556-1.219 0.994-1.969 0.931-0.094-0.75 0.275-1.55 0.706-2.037 0.469-0.569 1.288-0.975 1.956-1.006 0.075 0.775-0.231 1.544-0.694 2.112zM7.987 10.981c-1.087-0.063-2.019 0.619-2.531 0.619-0.525 0-1.313-0.588-2.175-0.569-1.119 0.019-2.156 0.65-2.725 1.656-1.175 2.019-0.306 5 0.831 6.644 0.556 0.813 1.219 1.706 2.094 1.675 0.831-0.031 1.156-0.538 2.156-0.538 1.006 0 1.3 0.538 2.175 0.525 0.906-0.019 1.475-0.813 2.031-1.625 0.631-0.925 0.894-1.819 0.906-1.869-0.019-0.019-1.75-0.681-1.769-2.681-0.019-1.675 1.369-2.469 1.431-2.519-0.781-1.162-2-1.287-2.425-1.319zM14.262 8.719v12.181h1.894v-4.163h2.619c2.394 0 4.069-1.644 4.069-4.019s-1.65-4-4.006-4h-4.575zM16.156 10.313h2.181c1.644 0 2.581 0.875 2.581 2.412s-0.938 2.425-2.587 2.425h-2.175v-4.838zM26.294 20.994c1.188 0 2.288-0.6 2.788-1.556h0.038v1.462h1.75v-6.063c0-1.756-1.406-2.894-3.569-2.894-2.006 0-3.494 1.15-3.55 2.725h1.706c0.144-0.75 0.837-1.244 1.788-1.244 1.156 0 1.806 0.537 1.806 1.531v0.675l-2.363 0.144c-2.194 0.131-3.381 1.031-3.381 2.594 0.006 1.575 1.231 2.625 2.988 2.625zM26.806 19.55c-1.006 0-1.65-0.488-1.65-1.225 0-0.769 0.619-1.212 1.8-1.281l2.1-0.131v0.688c0 1.137-0.969 1.95-2.25 1.95zM33.212 24.212c1.844 0 2.712-0.706 3.469-2.837l3.319-9.313h-1.925l-2.225 7.194h-0.038l-2.225-7.194h-1.975l3.2 8.869-0.175 0.538c-0.288 0.913-0.756 1.269-1.594 1.269-0.15 0-0.438-0.019-0.556-0.031v1.462c0.112 0.025 0.581 0.044 0.725 0.044z"></path>
</svg>
