<!-- Generated by IcoMoon.io -->
<svg version="1.1" xmlns="http://www.w3.org/2000/svg" width="24" height="32" viewBox="0 0 24 32">
<title>apple</title>
<path d="M19.919 16.794c-0.012-2.294 1.025-4.025 3.125-5.3-1.175-1.681-2.95-2.606-5.294-2.787-2.219-0.175-4.644 1.294-5.531 1.294-0.938 0-3.088-1.231-4.775-1.231-3.487 0.056-7.194 2.781-7.194 8.325q0 2.456 0.9 5.075c0.8 2.294 3.688 7.919 6.7 7.825 1.575-0.038 2.688-1.119 4.737-1.119 1.988 0 3.019 1.119 4.775 1.119 3.038-0.044 5.65-5.156 6.413-7.456-4.075-1.919-3.856-5.625-3.856-5.744zM16.381 6.531c1.706-2.025 1.55-3.869 1.5-4.531-1.506 0.087-3.25 1.025-4.244 2.181-1.094 1.237-1.738 2.769-1.6 4.494 1.631 0.125 3.119-0.713 4.344-2.144z"></path>
</svg>
