<!-- Generated by IcoMoon.io -->
<svg version="1.1" xmlns="http://www.w3.org/2000/svg" width="36" height="32" viewBox="0 0 36 32">
<title>arrow-down-z-a</title>
<path d="M11.475 29.35c-0.381 0.413-0.912 0.65-1.475 0.65s-1.094-0.238-1.475-0.65l-5.5-6c-0.744-0.813-0.694-2.081 0.125-2.825s2.081-0.694 2.825 0.125l2.025 2.206v-18.856c0-1.106 0.894-2 2-2s2 0.894 2 2v18.856l2.025-2.212c0.744-0.813 2.013-0.869 2.825-0.125s0.869 2.012 0.125 2.825l-5.5 6zM20 4c0-1.106 0.894-2 2-2h8c0.806 0 1.538 0.487 1.85 1.237s0.137 1.606-0.431 2.181l-4.587 4.581h3.169c1.106 0 2 0.894 2 2s-0.894 2-2 2h-8c-0.806 0-1.538-0.488-1.85-1.238s-0.137-1.606 0.431-2.181l4.587-4.581h-3.169c-1.106 0-2-0.894-2-2zM26 16c0.756 0 1.45 0.425 1.788 1.106l5 10c0.494 0.988 0.094 2.188-0.894 2.681s-2.188 0.094-2.681-0.894l-0.45-0.894h-5.525l-0.45 0.894c-0.494 0.988-1.694 1.387-2.681 0.894s-1.387-1.694-0.894-2.681l5-10c0.337-0.675 1.031-1.106 1.788-1.106zM24.738 25h2.525l-1.262-2.525-1.262 2.525z"></path>
</svg>
