<!-- Generated by IcoMoon.io -->
<svg version="1.1" xmlns="http://www.w3.org/2000/svg" width="36" height="32" viewBox="0 0 36 32">
<title>basket-shopping-solid</title>
<path d="M15.831 2.194c0.381-0.738 0.094-1.644-0.637-2.025s-1.644-0.094-2.025 0.637l-5.819 11.194h-5.35c-1.106 0-2 0.894-2 2s0.894 2 2 2l3.244 12.969c0.444 1.781 2.044 3.031 3.881 3.031h17.75c1.837 0 3.438-1.25 3.881-3.031l3.244-12.969c1.106 0 2-0.894 2-2s-0.894-2-2-2h-5.35l-5.819-11.194c-0.381-0.731-1.288-1.019-2.025-0.637s-1.019 1.288-0.637 2.025l5.1 9.806h-14.537l5.1-9.806zM12 19v6c0 0.55-0.45 1-1 1s-1-0.45-1-1v-6c0-0.55 0.45-1 1-1s1 0.45 1 1zM18 18c0.55 0 1 0.45 1 1v6c0 0.55-0.45 1-1 1s-1-0.45-1-1v-6c0-0.55 0.45-1 1-1zM26 19v6c0 0.55-0.45 1-1 1s-1-0.45-1-1v-6c0-0.55 0.45-1 1-1s1 0.45 1 1z"></path>
</svg>
