<!-- Generated by IcoMoon.io -->
<svg version="1.1" xmlns="http://www.w3.org/2000/svg" width="36" height="32" viewBox="0 0 36 32">
<title>bootstrap</title>
<path d="M20.844 12.588c0-1.381-0.975-2.144-2.688-2.144h-3.15v4.45h2.656c2.050-0.006 3.181-0.831 3.181-2.306zM32.313 11.787c-0.594-1.931-0.681-4.3-0.613-6.131 0.069-1.906-1.419-3.656-3.419-3.656h-20.55c-2.006 0-3.487 1.756-3.419 3.656 0.063 1.831-0.019 4.2-0.612 6.131-0.6 1.938-1.606 3.162-3.263 3.319v1.781c1.65 0.156 2.663 1.381 3.263 3.319 0.594 1.931 0.681 4.3 0.612 6.131-0.069 1.906 1.419 3.656 3.419 3.656h20.544c2.006 0 3.488-1.756 3.419-3.656-0.063-1.831 0.019-4.2 0.613-6.131 0.6-1.938 1.606-3.163 3.256-3.319v-1.781c-1.644-0.156-2.656-1.381-3.25-3.319zM18.762 23.444h-6.119v-14.894h6.088c2.706 0 4.481 1.463 4.481 3.713 0 1.581-1.194 2.994-2.719 3.237v0.081c2.075 0.225 3.469 1.663 3.469 3.644 0 2.631-1.956 4.219-5.2 4.219zM18.137 16.65h-3.131v4.9h3.269c2.137 0 3.269-0.856 3.269-2.469 0-1.606-1.163-2.431-3.406-2.431z"></path>
</svg>
