<!-- Generated by IcoMoon.io -->
<svg version="1.1" xmlns="http://www.w3.org/2000/svg" width="28" height="32" viewBox="0 0 28 32">
<title>calendar-check</title>
<path d="M8 0c0.831 0 1.5 0.669 1.5 1.5v2.5h9v-2.5c0-0.831 0.669-1.5 1.5-1.5s1.5 0.669 1.5 1.5v2.5h2.5c2.206 0 4 1.794 4 4v20c0 2.206-1.794 4-4 4h-20c-2.206 0-4-1.794-4-4v-20c0-2.206 1.794-4 4-4h2.5v-2.5c0-0.831 0.669-1.5 1.5-1.5zM25 12h-22v16c0 0.55 0.45 1 1 1h20c0.55 0 1-0.45 1-1v-16zM20.563 18.563l-7 7c-0.588 0.587-1.537 0.587-2.119 0l-4-4c-0.588-0.587-0.588-1.538 0-2.119s1.537-0.587 2.119 0l2.938 2.938 5.938-5.938c0.587-0.588 1.538-0.588 2.119 0s0.587 1.538 0 2.119z"></path>
</svg>
