<!-- Generated by IcoMoon.io -->
<svg version="1.1" xmlns="http://www.w3.org/2000/svg" width="28" height="32" viewBox="0 0 28 32">
<title>calendar-days</title>
<path d="M9.5 1.5c0-0.831-0.669-1.5-1.5-1.5s-1.5 0.669-1.5 1.5v2.5h-2.5c-2.206 0-4 1.794-4 4v20c0 2.206 1.794 4 4 4h20c2.206 0 4-1.794 4-4v-20c0-2.206-1.794-4-4-4h-2.5v-2.5c0-0.831-0.669-1.5-1.5-1.5s-1.5 0.669-1.5 1.5v2.5h-9v-2.5zM3 12h5v3.5h-5v-3.5zM3 18.5h5v4h-5v-4zM11 18.5h6v4h-6v-4zM20 18.5h5v4h-5v-4zM25 15.5h-5v-3.5h5v3.5zM25 25.5v2.5c0 0.55-0.45 1-1 1h-4v-3.5h5zM17 25.5v3.5h-6v-3.5h6zM8 25.5v3.5h-4c-0.55 0-1-0.45-1-1v-2.5h5zM17 15.5h-6v-3.5h6v3.5z"></path>
</svg>
