<!-- Generated by IcoMoon.io -->
<svg version="1.1" xmlns="http://www.w3.org/2000/svg" width="32" height="32" viewBox="0 0 32 32">
<title>circle-user</title>
<path d="M25.406 24.975c-1.194-2.919-4.063-4.975-7.406-4.975h-4c-3.344 0-6.213 2.056-7.406 4.975-2.225-2.337-3.594-5.494-3.594-8.975 0-7.181 5.819-13 13-13s13 5.819 13 13c0 3.481-1.369 6.637-3.594 8.975zM22.9 27.019c-2 1.256-4.363 1.981-6.9 1.981s-4.9-0.725-6.906-1.981c0.456-2.294 2.481-4.019 4.906-4.019h4c2.425 0 4.45 1.725 4.906 4.019zM16 32c8.837 0 16-7.163 16-16s-7.163-16-16-16v0c-8.837 0-16 7.163-16 16s7.163 16 16 16v0zM16 15c-1.381 0-2.5-1.119-2.5-2.5s1.119-2.5 2.5-2.5v0c1.381 0 2.5 1.119 2.5 2.5s-1.119 2.5-2.5 2.5v0zM10.5 12.5c0 3.038 2.462 5.5 5.5 5.5s5.5-2.462 5.5-5.5v0c0-3.038-2.462-5.5-5.5-5.5s-5.5 2.462-5.5 5.5v0z"></path>
</svg>
