<!-- Generated by IcoMoon.io -->
<svg version="1.1" xmlns="http://www.w3.org/2000/svg" width="32" height="32" viewBox="0 0 32 32">
<title>clone-regular</title>
<path d="M4 29h14c0.55 0 1-0.45 1-1v-4h3v4c0 2.206-1.794 4-4 4h-14c-2.206 0-4-1.794-4-4v-14c0-2.206 1.794-4 4-4h4v3h-4c-0.55 0-1 0.45-1 1v14c0 0.55 0.45 1 1 1zM14 19h14c0.55 0 1-0.45 1-1v-14c0-0.55-0.45-1-1-1h-14c-0.55 0-1 0.45-1 1v14c0 0.55 0.45 1 1 1zM10 18v-14c0-2.206 1.794-4 4-4h14c2.206 0 4 1.794 4 4v14c0 2.206-1.794 4-4 4h-14c-2.206 0-4-1.794-4-4z"></path>
</svg>
