<!-- Generated by IcoMoon.io -->
<svg version="1.1" xmlns="http://www.w3.org/2000/svg" width="32" height="32" viewBox="0 0 32 32">
<title>codepen</title>
<path d="M31.393 9.982l-14.625-9.75c-0.499-0.307-1.032-0.31-1.536 0l-14.625 9.75c-0.375 0.25-0.607 0.696-0.607 1.143v9.75c0 0.446 0.232 0.893 0.607 1.143l14.625 9.751c0.499 0.307 1.032 0.31 1.536 0l14.625-9.751c0.375-0.25 0.607-0.696 0.607-1.143v-9.75c-0-0.446-0.232-0.893-0.607-1.143zM17.375 3.946l10.768 7.179-4.804 3.214-5.964-3.982v-6.411zM14.625 3.946v6.411l-5.964 3.982-4.804-3.214 10.768-7.179zM2.75 13.696l3.446 2.304-3.446 2.304v-4.607zM14.625 28.053l-10.768-7.179 4.804-3.214 5.964 3.982v6.411zM16 19.249l-4.857-3.25 4.857-3.25 4.857 3.25-4.857 3.25zM17.375 28.053v-6.411l5.964-3.982 4.804 3.214-10.768 7.179zM29.25 18.303l-3.446-2.304 3.446-2.304v4.607z"></path>
</svg>
