<!-- Generated by IcoMoon.io -->
<svg version="1.1" xmlns="http://www.w3.org/2000/svg" width="32" height="32" viewBox="0 0 32 32">
<title>comment</title>
<path d="M7.725 24.456c0.806-0.587 1.85-0.738 2.787-0.4 1.656 0.6 3.512 0.944 5.488 0.944 7.794 0 13-5.031 13-10s-5.206-10-13-10-13 5.031-13 10c0 2 0.775 3.925 2.231 5.575 0.537 0.606 0.8 1.406 0.737 2.219-0.088 1.131-0.356 2.169-0.706 3.087 1.063-0.494 1.944-1.044 2.462-1.419zM1.325 26.994c0.113-0.169 0.219-0.337 0.319-0.506 0.625-1.038 1.219-2.4 1.337-3.931-1.875-2.131-2.981-4.738-2.981-7.556 0-7.181 7.162-13 16-13s16 5.819 16 13-7.163 13-16 13c-2.319 0-4.519-0.4-6.506-1.119-0.744 0.544-1.956 1.288-3.394 1.913-0.944 0.413-2.019 0.788-3.131 1.006-0.050 0.012-0.1 0.019-0.15 0.031-0.275 0.050-0.544 0.094-0.825 0.119-0.012 0-0.031 0.006-0.044 0.006-0.319 0.031-0.637 0.050-0.956 0.050-0.406 0-0.769-0.244-0.925-0.619s-0.069-0.8 0.213-1.087c0.256-0.262 0.487-0.544 0.706-0.844 0.106-0.144 0.206-0.288 0.3-0.431 0.006-0.012 0.012-0.019 0.019-0.031z"></path>
</svg>
