<!-- Generated by IcoMoon.io -->
<svg version="1.1" xmlns="http://www.w3.org/2000/svg" width="32" height="32" viewBox="0 0 32 32">
<title>message</title>
<path d="M10 23c1.656 0 3 1.344 3 3v1l4.531-3.4c0.519-0.387 1.15-0.6 1.8-0.6h8.669c0.55 0 1-0.45 1-1v-18c0-0.55-0.45-1-1-1h-24c-0.55 0-1 0.45-1 1v18c0 0.55 0.45 1 1 1h6zM13 30.75l-0.012 0.012-0.319 0.238-1.069 0.8c-0.3 0.225-0.706 0.262-1.050 0.094s-0.55-0.512-0.55-0.894v-5h-6c-2.206 0-4-1.794-4-4v-18c0-2.206 1.794-4 4-4h24c2.206 0 4 1.794 4 4v18c0 2.206-1.794 4-4 4h-8.669l-6.331 4.75z"></path>
</svg>
