<!-- Generated by IcoMoon.io -->
<svg version="1.1" xmlns="http://www.w3.org/2000/svg" width="32" height="32" viewBox="0 0 32 32">
<title>print-solid</title>
<path d="M8 0c-2.206 0-4 1.794-4 4v6h4v-6h14.169l1.831 1.831v4.169h4v-4.169c0-1.063-0.419-2.081-1.169-2.831l-1.831-1.831c-0.75-0.75-1.769-1.169-2.831-1.169h-14.169zM24 22v6h-16v-6h16zM28 24h2c1.106 0 2-0.894 2-2v-6c0-2.206-1.794-4-4-4h-24c-2.206 0-4 1.794-4 4v6c0 1.106 0.894 2 2 2h2v4c0 2.206 1.794 4 4 4h16c2.206 0 4-1.794 4-4v-4zM27 15.5c0.828 0 1.5 0.672 1.5 1.5s-0.672 1.5-1.5 1.5v0c-0.828 0-1.5-0.672-1.5-1.5s0.672-1.5 1.5-1.5v0z"></path>
</svg>
