<!-- Generated by IcoMoon.io -->
<svg version="1.1" xmlns="http://www.w3.org/2000/svg" width="28" height="32" viewBox="0 0 28 32">
<title>python</title>
<path d="M27.488 12.531c-0.481-1.931-1.394-3.387-3.337-3.387h-2.506v2.963c0 2.3-1.95 4.237-4.175 4.237h-6.675c-1.825 0-3.338 1.563-3.338 3.394v6.363c0 1.813 1.575 2.875 3.338 3.394 2.113 0.619 4.144 0.731 6.675 0 1.681-0.488 3.337-1.469 3.337-3.394v-2.544h-6.669v-0.85h10.012c1.944 0 2.663-1.356 3.337-3.387 0.7-2.094 0.669-4.106 0-6.787zM17.887 25.25c0.694 0 1.256 0.569 1.256 1.269 0 0.706-0.563 1.275-1.256 1.275-0.688 0-1.256-0.575-1.256-1.275 0.006-0.706 0.569-1.269 1.256-1.269zM10.488 15.506h6.675c1.856 0 3.337-1.531 3.337-3.394v-6.369c0-1.813-1.525-3.169-3.337-3.475-2.238-0.369-4.669-0.35-6.675 0.006-2.825 0.5-3.338 1.544-3.338 3.475v2.544h6.681v0.85h-9.188c-1.944 0-3.644 1.169-4.175 3.388-0.613 2.544-0.637 4.131 0 6.788 0.475 1.975 1.606 3.387 3.55 3.387h2.294v-3.050c0-2.206 1.906-4.15 4.175-4.15zM10.069 6.594c-0.694 0-1.256-0.569-1.256-1.269 0.006-0.706 0.563-1.275 1.256-1.275 0.688 0 1.256 0.575 1.256 1.275s-0.563 1.269-1.256 1.269z"></path>
</svg>
