<!-- Generated by IcoMoon.io -->
<svg version="1.1" xmlns="http://www.w3.org/2000/svg" width="31" height="32" viewBox="0 0 31 32">
<title>telegram</title>
<path d="M15.5 0.5c-8.56 0-15.5 6.94-15.5 15.5s6.94 15.5 15.5 15.5 15.5-6.94 15.5-15.5-6.94-15.5-15.5-15.5zM22.684 11.041c-0.233 2.451-1.243 8.399-1.756 11.144-0.217 1.162-0.645 1.551-1.059 1.589-0.9 0.083-1.584-0.595-2.455-1.166-1.364-0.894-2.135-1.451-3.459-2.324-1.53-1.008-0.538-1.563 0.334-2.469 0.228-0.237 4.194-3.844 4.271-4.172 0.010-0.041 0.019-0.194-0.072-0.274s-0.224-0.053-0.321-0.031q-0.205 0.047-6.538 4.321-0.928 0.637-1.681 0.621c-0.553-0.012-1.618-0.313-2.409-0.57-0.971-0.316-1.742-0.482-1.675-1.018q0.053-0.419 1.153-0.856 6.778-2.953 9.039-3.894c4.305-1.79 5.199-2.101 5.782-2.112 0.128-0.002 0.415 0.030 0.601 0.18 0.12 0.105 0.201 0.251 0.22 0.417l0 0.003c0.021 0.127 0.033 0.273 0.033 0.421 0 0.067-0.002 0.133-0.007 0.198l0-0.009z"></path>
</svg>
