<!-- Generated by IcoMoon.io -->
<svg version="1.1" xmlns="http://www.w3.org/2000/svg" width="28" height="32" viewBox="0 0 28 32">
<title>trash-can</title>
<path d="M10.656 3.225l-1.188 1.775h9.063l-1.188-1.775c-0.094-0.138-0.25-0.225-0.419-0.225h-5.856c-0.169 0-0.325 0.081-0.419 0.225zM19.844 1.563l2.294 3.438h4.363c0.831 0 1.5 0.669 1.5 1.5s-0.669 1.5-1.5 1.5h-0.5v19c0 2.762-2.238 5-5 5h-14c-2.763 0-5-2.238-5-5v-19h-0.5c-0.831 0-1.5-0.669-1.5-1.5s0.669-1.5 1.5-1.5h4.362l2.294-3.444c0.65-0.969 1.744-1.556 2.912-1.556h5.856c1.169 0 2.262 0.588 2.913 1.556zM5 8v19c0 1.106 0.894 2 2 2h14c1.106 0 2-0.894 2-2v-19h-18zM10 12v13c0 0.55-0.45 1-1 1s-1-0.45-1-1v-13c0-0.55 0.45-1 1-1s1 0.45 1 1zM15 12v13c0 0.55-0.45 1-1 1s-1-0.45-1-1v-13c0-0.55 0.45-1 1-1s1 0.45 1 1zM20 12v13c0 0.55-0.45 1-1 1s-1-0.45-1-1v-13c0-0.55 0.45-1 1-1s1 0.45 1 1z"></path>
</svg>
