<!-- Generated by IcoMoon.io -->
<svg version="1.1" xmlns="http://www.w3.org/2000/svg" width="28" height="32" viewBox="0 0 28 32">
<title>user</title>
<path d="M19 8c0-2.761-2.239-5-5-5s-5 2.239-5 5v0c0 2.761 2.239 5 5 5s5-2.239 5-5v0zM6 8c0-4.418 3.582-8 8-8s8 3.582 8 8v0c0 4.418-3.582 8-8 8s-8-3.582-8-8v0zM3.081 29h21.837c-0.556-3.956-3.956-7-8.063-7h-5.713c-4.106 0-7.506 3.044-8.063 7zM0 30.144c0-6.156 4.987-11.144 11.144-11.144h5.713c6.156 0 11.144 4.988 11.144 11.144 0 1.025-0.831 1.856-1.856 1.856h-24.288c-1.025 0-1.856-0.831-1.856-1.856z"></path>
</svg>
