<svg xmlns="http://www.w3.org/2000/svg" width="62" height="36" fill="none" viewBox="0 0 62 36"><path fill="#FBF503" d="M2.516 1.866h16.651q2.753 0 4.874 1.09Q26.162 4 27.335 5.995q1.173 1.953 1.173 4.494v4.221q0 2.633-1.218 4.676-1.22 1.996-3.43 3.131-2.166 1.09-5.054 1.09H8.743v10.03H2.516zm16.2 16.295q1.58 0 2.572-.999.993-1.044.993-2.723v-3.677q0-1.588-.903-2.496-.857-.953-2.301-.953H8.743V18.16zm23.977 15.841q-3.474 0-6.137-1.498-2.618-1.497-4.061-4.221-1.444-2.769-1.444-6.355v-8.351q0-3.585 1.444-6.31 1.488-2.768 4.151-4.266 2.707-1.498 6.228-1.498h4.783q3.384 0 5.957 1.452a9.96 9.96 0 0 1 3.97 4.085q1.445 2.588 1.445 6.037h-6.137q0-2.723-1.445-4.357-1.444-1.68-3.79-1.68h-4.783q-2.528 0-4.062 1.907-1.534 1.86-1.534 4.902v7.807q0 3.041 1.49 4.948 1.488 1.86 3.925 1.86h4.874q2.392 0 3.88-1.86 1.535-1.861 1.535-4.903h6.137q0 3.677-1.444 6.491-1.445 2.769-4.061 4.312-2.617 1.498-6.047 1.498z"/></svg>