<svg xmlns="http://www.w3.org/2000/svg" width="62" height="62" fill="none" viewBox="0 0 62 62"><path stroke="#F8F200" stroke-width="1.87879" d="m54.188 22.68-.034.387.248.298L60.777 31l-6.373 7.635-.25.298.035.386.887 10.086-9.384 2.233-.399.095-.202.357-4.904 8.672-8.8-3.959-.387-.174-.387.175-8.799 3.986-4.903-8.67-.202-.357-.399-.095-9.384-2.233.887-10.116.034-.386-.248-.298L1.223 31l6.376-7.665.247-.297-.034-.386-.887-10.113 9.382-2.205.4-.095.203-.357 4.904-8.673 8.8 3.96.386.173.385-.174 8.8-3.958 4.905 8.7.201.357.4.095 9.384 2.234z"/><path fill="#F8F200" d="m25.285 42.147-2.722-2.722q-1.634-1.635-3.267 0l-2.525 2.524 1.09 1.09 2.524-2.525q.544-.544 1.079-.01l.01.01-1.901 1.9q-1.365 1.366-.03 2.703 1.386 1.386 2.752.02zm-4.633 1.901q-.267-.267.01-.544l1.9-1.901.545.544-1.9 1.901q-.278.278-.555 0m10.127-7.395-1.554 1.554-3.346.08-.545.544 1.634 1.633-1.09 1.09-4.355-4.357 1.089-1.088 1.633 1.633.545-.544.089-3.356 1.544-1.545-.05 4.406zm-.788-7.923 3.267 3.266-1.634 1.634q-.545.544-1.089 0l-2.722-2.723-1.089 1.09 2.723 2.722q1.632 1.633 3.266 0l2.178-2.178 1.09 1.089 1.138-1.139-2.178-2.177-.594.593-3.267-3.266zm10.694-1.983-1.089 1.089-.465-.465q-.277 1.406-1.07 2.197-1.632 1.635-3.266 0l-2.821-2.821 1.088-1.089 2.822 2.821q.535.535 1.089 0 .95-1.227.594-2.672L35.24 23.48l1.09-1.089zm-2.376-3.564q-1.386-1.386-.02-2.752l2.99-2.99 4.356 4.356-1.09 1.09-1.633-1.634-.485.485.268 3-1.416 1.415-.267-3q-1.366 1.366-2.703.03m2.97-3.564-1.9 1.901q-.278.277.02.574.247.248.524-.03l1.9-1.9z"/></svg>