<svg xmlns="http://www.w3.org/2000/svg" width="58" height="51" fill="none" viewBox="0 0 58 51"><g fill="#FBF503" clip-path="url(#a)"><path fill-rule="evenodd" d="M8.913 8.198a.85.85 0 0 0-.343.685v.01a.9.9 0 0 0 .07.333l3.91 9.139a.81.81 0 0 0 1.026.455c2.56-.942 11.427-3.921 17.166-2.314 0 0-5.757.343-10.962 4.554a.86.86 0 0 0-.24 1.003l1.75 4.083.675 1.632c.16.387.673.433.9.083 1.214-1.887 3.262-2.83 5.229-3.652a29.3 29.3 0 0 1 6.263-1.844 26.4 26.4 0 0 1 6.93-.295.82.82 0 0 0 .856-.588l1.767-5.824a.86.86 0 0 0-.3-.933c-1.97-1.472-9.773-6.416-23.497-4.43 0 0 11.71-6.939 26.578.684a.813.813 0 0 0 1.144-.506l1.558-5.136a1 1 0 0 0 .037-.24v-.024a.85.85 0 0 0-.414-.72C47.15 3.262 40.833 0 32.143 0c-6.66 0-14.715 1.916-23.23 8.198" clip-rule="evenodd"/><path d="M16.422 50.256h-1.41a.4.4 0 0 1-.284-.122.42.42 0 0 1-.118-.294v-8.43h-3.456a.41.41 0 0 1-.4-.416v-1.306c0-.229.18-.415.402-.415h9.125c.222 0 .401.186.401.415v1.306c0 .23-.18.415-.401.415h-3.457v8.431c0 .11-.042.216-.118.294a.4.4 0 0 1-.284.121m-6.595-.798c.518-.534.729-1.214.729-2.345v-.288c0-1.132-.211-1.81-.729-2.346-.548-.566-1.274-.797-2.504-.797H2.857a.66.66 0 0 1-.474-.203.7.7 0 0 1-.196-.49V42.1c0-.382.3-.692.67-.692H9.25a.41.41 0 0 0 .402-.415v-1.306a.41.41 0 0 0-.402-.415H3.233c-1.23 0-1.956.231-2.505.798C.211 40.605 0 41.285 0 42.416v.228c0 1.134.21 1.811.728 2.345.549.567 1.274.798 2.505.798h4.483c.37 0 .67.31.67.692v.948c0 .382-.3.692-.67.692H.98a.41.41 0 0 0-.402.416v1.305c0 .11.043.216.118.294a.4.4 0 0 0 .284.121h6.344c1.229 0 1.954-.23 2.502-.797m31.92-4.724v.076c0 2.116-.324 3.2-1.24 4.148-.846.874-2.105 1.31-3.75 1.31h-4.868a.41.41 0 0 1-.402-.415V39.689c0-.229.18-.415.402-.415h4.87c1.645 0 2.906.442 3.75 1.311.916.947 1.239 2.034 1.239 4.15m-2.213 0c0-1.408-.086-2.086-.62-2.638-.438-.452-1.143-.671-2.158-.671h-3.054v6.694h3.056c1.014 0 1.72-.22 2.157-.671.535-.552.621-1.23.621-2.638zm5.805 5.106V39.688a.41.41 0 0 0-.402-.415h-1.409a.41.41 0 0 0-.401.415V49.84c0 .23.18.415.401.415h1.411a.4.4 0 0 0 .284-.121.42.42 0 0 0 .118-.294zm-15.149.415h-1.492c-.21 0-.4-.126-.487-.322l-.686-1.536h-5.539l-.687 1.536a.54.54 0 0 1-.484.322h-1.5a.4.4 0 0 1-.34-.194.43.43 0 0 1-.022-.401l4.532-9.748a1.41 1.41 0 0 1 1.268-.819c.54 0 1.032.318 1.27.819l4.53 9.747a.43.43 0 0 1-.02.402.4.4 0 0 1-.341.194zm-7.3-3.891h3.733l-1.862-4.388zm34.708 3.892h-1.496c-.21 0-.4-.127-.487-.323l-.685-1.536h-5.538l-.687 1.536a.54.54 0 0 1-.483.322h-1.5a.4.4 0 0 1-.34-.194.43.43 0 0 1-.023-.401l4.532-9.748c.236-.502.729-.82 1.269-.82s1.032.318 1.268.82l4.532 9.747a.43.43 0 0 1-.021.402.4.4 0 0 1-.341.194m-7.302-3.892h3.732l-1.861-4.388z"/></g><defs><clipPath id="a"><path fill="#fff" d="M0 0h58v50.268H0z"/></clipPath></defs></svg>