<svg xmlns="http://www.w3.org/2000/svg" width="178" height="36" fill="none" viewBox="0 0 178 36"><g fill="#FBF503" clip-path="url(#a)"><path d="m113.88 28.425-6.794-9.152-6.787 9.152h-2.796l8.168-11.057-7.46-10.05h2.796l6.079 8.197 6.078-8.197h2.794l-7.454 10.048 8.17 11.059zm-52.944-.004-8.178-11.055 7.46-10.048h-2.796l-6.08 8.198-6.075-8.198h-2.789l7.456 10.048-8.175 11.055h2.8l6.787-9.148 6.792 9.148z"/><path d="M76.484 18.166a6 6 0 0 0-1.394-.881 4.8 4.8 0 0 0 1.87-1.761c.45-.745.688-1.597.687-2.466 0-1.35-.501-5.742-6.914-5.742h-8.636v9.1h-2.876a63 63 0 0 0-1.543 2.118h4.42v9.887l8.637.002c4.679 0 7.585-2.357 7.585-6.162 0-1.661-.632-3.072-1.836-4.095M64.485 9.519h6.25c1.69 0 4.524.418 4.524 3.354 0 2.22-1.65 3.543-4.524 3.543h-6.25zm6.248 16.703h-6.25v-7.683h6.25c2.37 0 5.205.65 5.205 3.676 0 3.485-3.26 4.007-5.205 4.007m18.821-19.39c-5.974 0-10.15 4.534-10.15 11.026 0 6.503 4.176 11.033 10.15 11.033 5.969 0 10.133-4.53 10.133-11.033 0-6.492-4.164-11.027-10.133-11.027m0 19.826c-4.552 0-7.74-3.62-7.74-8.8s3.188-8.797 7.74-8.797c4.545 0 7.716 3.618 7.716 8.797s-3.171 8.8-7.716 8.8M5.296 5.06l-.016.015v.002a17.5 17.5 0 0 0-3.906 5.732 17.4 17.4 0 0 0-1.368 6.786A17.43 17.43 0 0 0 3.63 28.25c.024.03.062.046.095.03.032-.019.034-.058.02-.091-1.35-4.148 5.557-14.2 9.127-18.414.011-.014.026-.031.026-.051 0-.024-.017-.043-.034-.058C6.86 3.737 5.257 5.093 5.28 5.074zm24.878 0 .017.015v.002a17.5 17.5 0 0 1 3.905 5.732 17.4 17.4 0 0 1 1.366 6.786 17.43 17.43 0 0 1-3.624 10.657c-.022.03-.061.046-.095.03-.03-.019-.031-.058-.02-.091 1.351-4.148-5.551-14.207-9.119-18.423-.013-.015-.026-.031-.026-.05 0-.026.015-.044.034-.059 6.005-5.93 7.597-4.565 7.577-4.584zM17.735 0c3.577 0 6.52.973 9.235 2.575.033.017.042.054.03.087-.014.031-.05.039-.086.03-3.432-.737-8.65 2.206-9.142 2.5q-.015.014-.037.015-.024-.002-.039-.014c-1.309-.746-6.13-3.254-9.167-2.483-.034.007-.071.002-.086-.031a.07.07 0 0 1 .03-.087C11.187.973 14.167 0 17.735 0m0 14.11c.02 0 .043.017.056.028 5.305 4.004 14.385 13.9 11.613 16.699l.004-.004-.002.004h-.004a17.73 17.73 0 0 1-11.669 4.353 17.74 17.74 0 0 1-11.67-4.353l-.004-.004.004.004c-2.767-2.799 6.311-12.695 11.61-16.699.016-.01.04-.027.062-.027m140.213-6.792v17.32L145.091 7.305l-2.108-.004V28.39h2.367V11.452l12.594 16.95 2.373.004V7.318zm-27.254-.49c-5.975 0-10.152 4.536-10.152 11.027 0 6.502 4.177 11.04 10.152 11.04 5.968 0 10.132-4.538 10.132-11.04 0-6.49-4.164-11.027-10.132-11.027m0 19.83c-4.552 0-7.742-3.62-7.742-8.803 0-5.178 3.19-8.798 7.742-8.798 4.544 0 7.715 3.62 7.715 8.798 0 5.183-3.171 8.803-7.715 8.803m34.661-.316V18.54h11.701v-2.064h-11.701v-7.11h12.495V7.304h-14.875v21.103h15.022v-2.064z"/></g><defs><clipPath id="a"><path fill="#fff" d="M0 0h178v35.188H0z"/></clipPath></defs></svg>