<svg xmlns="http://www.w3.org/2000/svg" width="65" height="52"><path fill-rule="evenodd" fill="#FE3E57" d="M63.249 39.874c-.966 0-1.75.106-1.75-1.734 0-.958.784-1.734 1.75-1.734.967 0 1.75.776 1.75 1.734 0 1.84-.783 1.734-1.75 1.734zm0-12.156c-.966 0-1.75-.769-1.75-1.719 0-.499.784-1.719 1.75-1.719.967 0 1.75 1.22 1.75 1.719 0 .95-.783 1.719-1.75 1.719zm0-12.125c-.966 0-1.75-.776-1.75-1.734s.784-1.735 1.75-1.735c.967 0 1.75.777 1.75 1.735 0 .958-.783 1.734-1.75 1.734zm0-12.125c-.966 0-1.75-.777-1.75-1.734 0-.958.784-1.734 1.75-1.734.967 0 1.75.776 1.75 1.734 0 .957-.783 1.734-1.75 1.734zM50.953 51.999c-.976 0-1.766-.776-1.766-1.734s.79-1.734 1.766-1.734c.975 0 1.765.776 1.765 1.734s-.79 1.734-1.765 1.734zm0-12.125c-.976 0-1.766.106-1.766-1.734 0-.958.79-1.734 1.766-1.734.975 0 1.765.776 1.765 1.734 0 1.84-.79 1.734-1.765 1.734zm0-12.156c-.976 0-1.766-.769-1.766-1.719 0-.499.79-1.719 1.766-1.719.975 0 1.765 1.22 1.765 1.719 0 .95-.79 1.719-1.765 1.719zm0-12.125c-.976 0-1.766-.776-1.766-1.734s.79-1.735 1.766-1.735c.975 0 1.765.777 1.765 1.735 0 .958-.79 1.734-1.765 1.734zm0-12.125c-.976 0-1.766-.777-1.766-1.734 0-.958.79-1.734 1.766-1.734.975 0 1.765.776 1.765 1.734 0 .957-.79 1.734-1.765 1.734zM38.656 51.999c-.967 0-1.75-.776-1.75-1.734s.783-1.734 1.75-1.734c.966 0 1.75.776 1.75 1.734s-.784 1.734-1.75 1.734zm0-12.125c-.967 0-1.75.106-1.75-1.734 0-.958.783-1.734 1.75-1.734.966 0 1.75.776 1.75 1.734 0 1.84-.784 1.734-1.75 1.734zm0-12.156c-.967 0-1.75-.769-1.75-1.719 0-.499.783-1.719 1.75-1.719.966 0 1.75 1.22 1.75 1.719 0 .95-.784 1.719-1.75 1.719zm0-12.125c-.967 0-1.75-.776-1.75-1.734s.783-1.735 1.75-1.735c.966 0 1.75.777 1.75 1.735 0 .958-.784 1.734-1.75 1.734zm0-12.125c-.967 0-1.75-.777-1.75-1.734 0-.958.783-1.734 1.75-1.734.966 0 1.75.776 1.75 1.734 0 .957-.784 1.734-1.75 1.734zM26.343 51.999c-.966 0-1.75-.776-1.75-1.734s.784-1.734 1.75-1.734c.967 0 2.587.776 2.587 1.734s-1.62 1.734-2.587 1.734zm0-12.125c-.966 0-1.75.106-1.75-1.734 0-.958.784-1.734 1.75-1.734.967 0 2.587.776 2.587 1.734 0 1.84-1.62 1.734-2.587 1.734zm0-12.156c-.966 0-1.75-.769-1.75-1.719 0-.499.784-1.719 1.75-1.719.967 0 2.587 1.22 2.587 1.719 0 .95-1.62 1.719-2.587 1.719zm0-12.125c-.966 0-1.75-.776-1.75-1.734s.784-1.735 1.75-1.735c.967 0 2.587.777 2.587 1.735 0 .958-1.62 1.734-2.587 1.734zm0-12.125c-.966 0-1.75-.777-1.75-1.734 0-.958.784-1.734 1.75-1.734.967 0 2.587.776 2.587 1.734 0 .957-1.62 1.734-2.587 1.734zM14.46 51.999c-.75 0-2.179-.776-2.179-1.734s1.429-1.734 2.179-1.734c.75 0 1.352.776 1.352 1.734s-.602 1.734-1.352 1.734zm0-12.125c-.75 0-2.179.106-2.179-1.734 0-.958 1.429-1.734 2.179-1.734.75 0 1.352.776 1.352 1.734 0 1.84-.602 1.734-1.352 1.734zm0-12.156c-.75 0-2.179-.769-2.179-1.719 0-.499 1.429-1.719 2.179-1.719.75 0 1.352 1.22 1.352 1.719 0 .95-.602 1.719-1.352 1.719zm0-12.125c-.75 0-2.179-.776-2.179-1.734s1.429-1.735 2.179-1.735c.75 0 1.352.777 1.352 1.735 0 .958-.602 1.734-1.352 1.734zm0-12.125c-.75 0-2.179-.777-2.179-1.734C12.281.776 13.71 0 14.46 0c.75 0 1.352.776 1.352 1.734 0 .957-.602 1.734-1.352 1.734zM1.749 51.999A1.741 1.741 0 010 50.265c0-.958.783-1.734 1.749-1.734.967 0 1.75.776 1.75 1.734s-.783 1.734-1.75 1.734zm0-12.125C.783 39.874 0 39.98 0 38.14c0-.958.783-1.734 1.749-1.734.967 0 1.75.776 1.75 1.734 0 1.84-.783 1.734-1.75 1.734zm0-12.156C.783 27.718 0 26.949 0 25.999c0-.499.783-1.719 1.749-1.719.967 0 1.75 1.22 1.75 1.719 0 .95-.783 1.719-1.75 1.719zm0-12.125A1.741 1.741 0 010 13.859c0-.958.783-1.735 1.749-1.735.967 0 1.75.777 1.75 1.735 0 .958-.783 1.734-1.75 1.734zm0-12.125A1.742 1.742 0 010 1.734C0 .776.783 0 1.749 0c.967 0 1.75.776 1.75 1.734 0 .957-.783 1.734-1.75 1.734zm61.5 45.063c.967 0 1.75.776 1.75 1.734s-.783 1.734-1.75 1.734c-.966 0-1.75-.776-1.75-1.734s.784-1.734 1.75-1.734z"/></svg>