<svg width="14" height="17" fill="none" xmlns="http://www.w3.org/2000/svg"><path d="M6.894 8.083A3.91 3.91 0 009.752 6.9a3.91 3.91 0 001.184-2.858 3.91 3.91 0 00-1.184-2.857A3.912 3.912 0 006.894 0a3.91 3.91 0 00-2.857 1.184 3.91 3.91 0 00-1.184 2.857A3.91 3.91 0 004.037 6.9a3.912 3.912 0 002.857 1.184zm7.072 4.82a9.987 9.987 0 00-.136-1.06 8.344 8.344 0 00-.26-1.066 5.263 5.263 0 00-.439-.994 3.751 3.751 0 00-.66-.862 2.924 2.924 0 00-.95-.596 3.28 3.28 0 00-1.212-.22c-.171 0-.337.071-.657.28a88.68 88.68 0 01-.684.44 3.92 3.92 0 01-.886.39A3.516 3.516 0 017 9.392a3.52 3.52 0 01-1.083-.175 3.911 3.911 0 01-.885-.39 93.785 93.785 0 01-.685-.442c-.32-.208-.486-.278-.657-.278-.436 0-.844.073-1.212.22a2.911 2.911 0 00-.949.596c-.25.238-.472.528-.66.86-.183.321-.33.656-.439.995a8.373 8.373 0 00-.26 1.066 9.948 9.948 0 00-.136 1.06c-.023.322-.034.655-.034.992 0 .876.278 1.585.828 2.108.542.516 1.26.777 2.132.777h8.08c.873 0 1.59-.261 2.132-.777.55-.523.828-1.232.828-2.108 0-.339-.011-.672-.034-.992z" fill="#fff"/></svg>