<svg width="14" height="17" fill="none" xmlns="http://www.w3.org/2000/svg"><path d="M1.004 5.054H.471a.47.47 0 000 .942h.533v-.942zm0 7.533H.471a.47.47 0 000 .942h.533v-.942zm0-2.511H.471a.47.47 0 100 .942h.533v-.942zm0-2.511H.471a.47.47 0 000 .942h.533v-.942zm0-5.022H.471a.47.47 0 000 .941h.533v-.941zM4.018 0h-1.6c-.78 0-1.413.634-1.413 1.413v1.13H2.48a.47.47 0 010 .941H1.005v1.57H2.48a.47.47 0 010 .942H1.005v1.569H2.48a.47.47 0 010 .942H1.005v1.57H2.48a.47.47 0 010 .94H1.005v1.57H2.48a.47.47 0 010 .942H1.005v1.13c0 .78.634 1.413 1.412 1.413h1.601V0zm3.923 3.484h2.135v1.068H7.94V3.484z" fill="#000"/><path d="M12.588 0H4.96v16.072h7.628c.779 0 1.412-.634 1.412-1.413V1.413C14 .633 13.367 0 12.588 0zm-1.57 5.022a.47.47 0 01-.47.471H7.47a.47.47 0 01-.47-.47v-2.01c0-.26.21-.47.47-.47h3.076c.26 0 .471.21.471.47v2.01z" fill="#000"/></svg>