<svg width="14" height="14" fill="none" xmlns="http://www.w3.org/2000/svg"><path d="M13.087 2.715h-1.02c.135-.213.224-.452.25-.704a1.796 1.796 0 00-1.07-1.852 1.79 1.79 0 00-1.95.314L8.01 1.639a1.366 1.366 0 00-2.023.002L4.7.473A1.79 1.79 0 002.748.159a1.796 1.796 0 00-1.067 1.852c.025.252.114.491.248.704H.913A.913.913 0 000 3.628v1.37c0 .251.204.456.457.456h13.086A.457.457 0 0014 4.997v-1.37a.913.913 0 00-.913-.912zM5.63 2.562v.153H3.483a.9.9 0 01-.873-1.12A.896.896 0 013.104 1a.879.879 0 01.983.149L5.63 2.548v.013zm5.78-.673c-.034.475-.462.826-.938.826H8.37v-.169L9.89 1.17c.233-.212.56-.311.863-.221.434.13.69.499.657.941zM.913 6.367v6.696c0 .504.409.912.913.912h4.261V6.368H.913zm7 0v7.609h4.26a.913.913 0 00.914-.914V6.367H7.913z" fill="#000"/></svg>