<svg width="14" height="14" fill="none" xmlns="http://www.w3.org/2000/svg"><path d="M10.667 10.667a1.333 1.333 0 100 2.667 1.333 1.333 0 000-2.667zM0 0v1.333h1.333l2.4 5.06-.906 1.634c-.1.186-.16.406-.16.64A1.333 1.333 0 004 10h8V8.667H4.28a.167.167 0 01-.167-.167c0-.033.007-.06.02-.08l.6-1.087H9.7c.5 0 .94-.28 1.167-.686l2.386-4.314a.843.843 0 00.08-.333.667.667 0 00-.666-.667h-9.86L2.18 0H0zm4 10.667a1.333 1.333 0 100 2.667 1.333 1.333 0 000-2.667z" fill="#ED165F"/><path d="M7.5 2.667v3M6 4.167h3" stroke="#fff" stroke-width=".5"/></svg>