<svg width="16" height="15" fill="none" xmlns="http://www.w3.org/2000/svg"><path d="M14.73 1.393A4.302 4.302 0 0011.53 0c-.923 0-1.769.292-2.514.868A5.14 5.14 0 008 1.929 5.14 5.14 0 006.984.868 4.025 4.025 0 004.47 0a4.303 4.303 0 00-3.2 1.393C.45 2.281 0 3.493 0 4.808 0 6.162.504 7.4 1.587 8.707c.968 1.168 2.36 2.354 3.972 3.728.55.47 1.175 1.001 1.822 1.567a.938.938 0 001.237 0 186.14 186.14 0 011.823-1.567c1.612-1.374 3.004-2.56 3.972-3.728C15.496 7.4 16 6.162 16 4.808c0-1.314-.45-2.527-1.27-3.415z" fill="#000"/></svg>