<svg width="16" height="16" fill="none" xmlns="http://www.w3.org/2000/svg"><path d="M11.207 3.48V.782A.784.784 0 0010.426 0H.782A.784.784 0 000 .782v11.051c0 .287.17.56.417.69L6.36 15.6c.26.13.573-.052.573-.351V12.25h3.493c.43 0 .781-.352.781-.782V7.194H9.644v3.101c0 .222-.17.391-.391.391H6.946V4.053c0-.287-.17-.56-.417-.69l-3.506-1.8h6.23c.221 0 .39.17.39.39v1.539h1.564V3.48z" fill="#ED165F"/><path d="M13.215 2.202l2.541 2.542a.78.78 0 010 1.133L13.215 8.42c-.326.325-.821.338-1.147.013-.313-.313-.274-.834.026-1.147l1.147-1.134H8.797a.771.771 0 01-.586-.26c-.365-.392-.274-1.082.195-1.343a.835.835 0 01.391-.104h4.444S12.107 3.31 12.094 3.31c-.3-.3-.339-.834-.026-1.134.313-.312.821-.3 1.147.026z" fill="#ED165F"/></svg>