<!-- Generated by IcoMoon.io -->
<svg version="1.1" xmlns="http://www.w3.org/2000/svg" width="28" height="32" viewBox="0 0 28 32">
<title>amazon</title>
<path d="M16.075 10.169c-3.044 0.113-10.594 0.969-10.594 7.344 0 6.844 8.644 7.125 11.469 2.7 0.406 0.637 2.212 2.344 2.831 2.925l3.55-3.5s-2.019-1.581-2.019-3.3v-9.194c0-1.581-1.531-5.144-7.019-5.144-5.5 0-8.419 3.438-8.419 6.519l4.594 0.425c1.019-3.094 3.387-3.094 3.387-3.094 2.544-0.006 2.219 1.862 2.219 4.319zM16.075 15.594c0 5-5.262 4.25-5.262 1.075 0-2.95 3.156-3.544 5.262-3.613v2.537zM24.575 25.813c-0.481 0.625-4.375 4.188-10.906 4.188s-11.531-4.469-13.063-6.313c-0.425-0.481 0.063-0.706 0.344-0.519 4.581 2.781 11.738 7.363 23.281 1.894 0.469-0.231 0.831 0.125 0.344 0.75zM27.063 25.95c-0.406 0.988-1 1.675-1.325 1.938-0.344 0.281-0.594 0.169-0.406-0.238s1.206-2.906 0.794-3.438c-0.406-0.519-2.313-0.269-3-0.2-0.675 0.063-0.813 0.125-0.875-0.019-0.144-0.356 1.356-0.969 2.344-1.094 0.981-0.113 2.563-0.050 2.875 0.356 0.231 0.319 0 1.694-0.406 2.694z"></path>
</svg>
