<!-- Generated by IcoMoon.io -->
<svg version="1.1" xmlns="http://www.w3.org/2000/svg" width="36" height="32" viewBox="0 0 36 32">
<title>arrow-down-1-9</title>
<path d="M28.169 2.375c-0.519-0.375-1.194-0.481-1.8-0.275l-3 1c-1.050 0.35-1.613 1.481-1.262 2.531s1.481 1.612 2.531 1.263l0.369-0.125v3.231h-1.006c-1.106 0-2 0.894-2 2s0.894 2 2 2h6c1.106 0 2-0.894 2-2s-0.894-2-2-2h-1v-6c0-0.644-0.306-1.244-0.831-1.625zM10 30c0.563 0 1.094-0.238 1.475-0.65l5.5-6c0.744-0.813 0.694-2.081-0.125-2.825s-2.081-0.694-2.825 0.125l-2.025 2.206v-18.856c0-1.106-0.894-2-2-2s-2 0.894-2 2v18.856l-2.025-2.206c-0.744-0.813-2.013-0.869-2.825-0.125s-0.869 2.012-0.125 2.825l5.5 6c0.381 0.413 0.912 0.65 1.475 0.65zM26.144 19.188c0.251-0.121 0.545-0.192 0.856-0.192 1.106 0 2.002 0.896 2.002 2.002 0 0.794-0.463 1.481-1.134 1.804l-0.012 0.005c-0.251 0.121-0.545 0.192-0.856 0.192-1.106 0-2.002-0.896-2.002-2.002 0-0.794 0.463-1.481 1.134-1.804l0.012-0.005zM25.319 26.238l-0.425 0.575c-0.656 0.887-0.469 2.137 0.419 2.8s2.137 0.469 2.8-0.419l3.050-4.113c0.875-1.181 1.344-2.606 1.344-4.075 0-3.038-2.462-5.5-5.5-5.5s-5.5 2.462-5.5 5.5c0 2.45 1.6 4.525 3.819 5.238z"></path>
</svg>
