<!-- Generated by IcoMoon.io -->
<svg version="1.1" xmlns="http://www.w3.org/2000/svg" width="28" height="32" viewBox="0 0 28 32">
<title>bluetooth</title>
<path d="M18.288 10.694l-2.681 2.681-0.019-5.375 2.7 2.694zM15.588 24.431l2.694-2.694-2.681-2.681-0.012 5.375zM26 16.212c0 12.85-4.494 15.788-11.569 15.788s-12.431-2.938-12.431-15.788 5.213-16.212 12.287-16.212 11.713 3.369 11.713 16.212zM16.094 16.212l4.962-5.537-7.819-8.394v11.056l-4.612-4.613-1.688 1.681 5.794 5.813-5.794 5.813 1.681 1.681 4.613-4.613 0.144 10.625 7.962-7.969-5.244-5.544z"></path>
</svg>
