<!-- Generated by IcoMoon.io -->
<svg version="1.1" xmlns="http://www.w3.org/2000/svg" width="36" height="32" viewBox="0 0 36 32">
<title>cart-shopping-solid</title>
<path d="M0 1.5c0-0.831 0.669-1.5 1.5-1.5h2.844c1.375 0 2.594 0.8 3.162 2h25.688c1.644 0 2.844 1.563 2.413 3.15l-2.563 9.519c-0.531 1.963-2.313 3.331-4.344 3.331h-18.031l0.338 1.781c0.137 0.706 0.756 1.219 1.475 1.219h18.019c0.831 0 1.5 0.669 1.5 1.5s-0.669 1.5-1.5 1.5h-18.019c-2.162 0-4.019-1.538-4.419-3.656l-3.225-16.938c-0.044-0.237-0.25-0.406-0.494-0.406h-2.844c-0.831 0-1.5-0.669-1.5-1.5zM8 29c0-1.657 1.343-3 3-3s3 1.343 3 3v0c0 1.657-1.343 3-3 3s-3-1.343-3-3v0zM29 26c1.657 0 3 1.343 3 3s-1.343 3-3 3v0c-1.657 0-3-1.343-3-3s1.343-3 3-3v0z"></path>
</svg>
