<!-- Generated by IcoMoon.io -->
<svg version="1.1" xmlns="http://www.w3.org/2000/svg" width="32" height="32" viewBox="0 0 32 32">
<title>chrome</title>
<path d="M0 16c0-2.912 0.779-5.65 2.142-8.056l6.864 11.95c1.369 2.45 3.987 4.106 6.994 4.106 0.894 0 1.694-0.144 2.55-0.413l-4.769 8.262c-7.787-1.081-13.781-7.769-13.781-15.85zM22.819 20.1c0.769-1.2 1.181-2.656 1.181-4.1 0-2.387-1.050-4.531-2.706-6h9.544c0.75 1.85 1.163 3.881 1.163 6 0 8.837-7.163 15.944-16 16l6.819-11.9zM29.863 8h-13.863c-3.931 0-7.106 2.756-7.844 6.419l-4.769-8.264c2.926-3.746 7.488-6.154 12.613-6.154 5.925 0 11.094 3.217 13.863 8v0zM10.5 16c0-3.037 2.463-5.5 5.5-5.5s5.5 2.463 5.5 5.5c0 3.038-2.462 5.5-5.5 5.5s-5.5-2.462-5.5-5.5z"></path>
</svg>
