<!-- Generated by IcoMoon.io -->
<svg version="1.1" xmlns="http://www.w3.org/2000/svg" width="32" height="32" viewBox="0 0 32 32">
<title>circle-arrow-right</title>
<path d="M0 16c0 8.837 7.163 16 16 16s16-7.163 16-16v0c0-8.837-7.163-16-16-16s-16 7.163-16 16v0zM17.563 24.063c-0.587 0.587-1.538 0.587-2.119 0s-0.588-1.538 0-2.119l4.438-4.438-11.381-0.006c-0.831 0-1.5-0.669-1.5-1.5s0.669-1.5 1.5-1.5h11.381l-4.438-4.438c-0.588-0.588-0.588-1.537 0-2.119s1.538-0.588 2.119 0l7 6.994c0.587 0.588 0.587 1.538 0 2.119l-7 7.006z"></path>
</svg>
