<!-- Generated by IcoMoon.io -->
<svg version="1.1" xmlns="http://www.w3.org/2000/svg" width="24" height="32" viewBox="0 0 24 32">
<title>clipboard-solid</title>
<path d="M12 0c-2.613 0-4.838 1.669-5.656 4h-2.344c-2.206 0-4 1.794-4 4v20c0 2.206 1.794 4 4 4h16c2.206 0 4-1.794 4-4v-20c0-2.206-1.794-4-4-4h-2.344c-0.819-2.331-3.044-4-5.656-4zM12 4c1.105 0 2 0.895 2 2s-0.895 2-2 2v0c-1.105 0-2-0.895-2-2s0.895-2 2-2v0zM7 12h10c0.55 0 1 0.45 1 1s-0.45 1-1 1h-10c-0.55 0-1-0.45-1-1s0.45-1 1-1z"></path>
</svg>
