<!-- Generated by IcoMoon.io -->
<svg version="1.1" xmlns="http://www.w3.org/2000/svg" width="24" height="32" viewBox="0 0 24 32">
<title>clipboard-regular</title>
<path d="M17.5 4h2.5c2.206 0 4 1.794 4 4v20c0 2.206-1.794 4-4 4h-16c-2.206 0-4-1.794-4-4v-20c0-2.206 1.794-4 4-4h3.1c0.463-2.281 2.481-4 4.9-4s4.438 1.719 4.9 4h0.6zM4 7c-0.55 0-1 0.45-1 1v20c0 0.55 0.45 1 1 1h16c0.55 0 1-0.45 1-1v-20c0-0.55-0.45-1-1-1h-1v1.5c0 0.831-0.669 1.5-1.5 1.5h-11c-0.831 0-1.5-0.669-1.5-1.5v-1.5h-1zM12 6.5c0.828 0 1.5-0.672 1.5-1.5s-0.672-1.5-1.5-1.5v0c-0.828 0-1.5 0.672-1.5 1.5s0.672 1.5 1.5 1.5v0z"></path>
</svg>
