<!-- Generated by IcoMoon.io -->
<svg version="1.1" xmlns="http://www.w3.org/2000/svg" width="32" height="32" viewBox="0 0 32 32">
<title>comment-dots</title>
<path d="M10.512 24.056c-0.938-0.337-1.981-0.194-2.787 0.4-0.513 0.375-1.394 0.925-2.463 1.419 0.35-0.919 0.619-1.956 0.706-3.087 0.063-0.806-0.206-1.606-0.737-2.219-1.456-1.644-2.231-3.569-2.231-5.569 0-4.969 5.206-10 13-10s13 5.031 13 10-5.206 10-13 10c-1.975 0-3.831-0.344-5.488-0.944zM1.644 26.488c-0.1 0.169-0.206 0.337-0.319 0.506l-0.019 0.031c-0.1 0.144-0.2 0.288-0.3 0.431-0.219 0.294-0.456 0.581-0.706 0.844-0.287 0.288-0.369 0.712-0.212 1.087s0.519 0.619 0.925 0.619c0.319 0 0.637-0.019 0.956-0.050l0.044-0.006c0.275-0.031 0.55-0.069 0.825-0.119 0.050-0.006 0.1-0.019 0.15-0.031 1.113-0.219 2.181-0.594 3.131-1.006 1.431-0.625 2.65-1.369 3.394-1.913 1.988 0.719 4.188 1.119 6.506 1.119 8.837 0 16-5.819 16-13s-7.181-13-16.019-13-16 5.819-16 13c0 2.819 1.106 5.425 2.981 7.556-0.119 1.531-0.712 2.894-1.337 3.931zM9 17c1.105 0 2-0.895 2-2s-0.895-2-2-2v0c-1.105 0-2 0.895-2 2s0.895 2 2 2v0zM18 15c0-1.105-0.895-2-2-2s-2 0.895-2 2v0c0 1.105 0.895 2 2 2s2-0.895 2-2v0zM23 17c1.105 0 2-0.895 2-2s-0.895-2-2-2v0c-1.105 0-2 0.895-2 2s0.895 2 2 2v0z"></path>
</svg>
