<!-- Generated by IcoMoon.io -->
<svg version="1.1" xmlns="http://www.w3.org/2000/svg" width="28" height="32" viewBox="0 0 28 32">
<title>copy-regular</title>
<path d="M24 21h-12c-0.55 0-1-0.45-1-1v-16c0-0.55 0.45-1 1-1h8.756l4.244 4.244v12.756c0 0.55-0.45 1-1 1zM12 24h12c2.206 0 4-1.794 4-4v-12.756c0-0.794-0.319-1.556-0.881-2.119l-4.238-4.244c-0.563-0.563-1.325-0.881-2.119-0.881h-8.762c-2.206 0-4 1.794-4 4v16c0 2.206 1.794 4 4 4zM4 8c-2.206 0-4 1.794-4 4v16c0 2.206 1.794 4 4 4h12c2.206 0 4-1.794 4-4v-2h-3v2c0 0.55-0.45 1-1 1h-12c-0.55 0-1-0.45-1-1v-16c0-0.55 0.45-1 1-1h2v-3h-2z"></path>
</svg>
