<!-- Generated by IcoMoon.io -->
<svg version="1.1" xmlns="http://www.w3.org/2000/svg" width="36" height="32" viewBox="0 0 36 32">
<title>house</title>
<path d="M35.987 15.969c0 1.125-0.938 2.006-2 2.006h-2l0.044 10.012c0 0.169-0.013 0.337-0.031 0.506v1.006c0 1.381-1.119 2.5-2.5 2.5h-1c-0.069 0-0.137 0-0.206-0.006-0.087 0.006-0.175 0.006-0.262 0.006h-3.531c-1.381 0-2.5-1.119-2.5-2.5v-5.5c0-1.106-0.894-2-2-2h-4c-1.106 0-2 0.894-2 2v5.5c0 1.381-1.119 2.5-2.5 2.5h-3.494c-0.094 0-0.188-0.006-0.281-0.012-0.075 0.006-0.15 0.012-0.225 0.012h-1c-1.381 0-2.5-1.119-2.5-2.5v-7c0-0.056 0-0.119 0.006-0.175v-4.35h-2.006c-1.125 0-2-0.875-2-2.006 0-0.563 0.188-1.063 0.625-1.5l16.025-13.969c0.438-0.438 0.938-0.5 1.375-0.5s0.938 0.125 1.313 0.438l15.962 14.031c0.5 0.438 0.75 0.938 0.688 1.5z"></path>
</svg>
