<!-- Generated by IcoMoon.io -->
<svg version="1.1" xmlns="http://www.w3.org/2000/svg" width="32" height="32" viewBox="0 0 32 32">
<title>log-out-1</title>
<path d="M23.619 6.619l7.675 7.675c0.45 0.45 0.706 1.069 0.706 1.706s-0.256 1.256-0.706 1.706l-7.675 7.675c-0.4 0.4-0.938 0.619-1.5 0.619-1.169 0-2.119-0.95-2.119-2.119v-3.881h-8c-1.106 0-2-0.894-2-2v-4c0-1.106 0.894-2 2-2h8v-3.881c0-1.169 0.95-2.119 2.119-2.119 0.563 0 1.1 0.225 1.5 0.619zM10 6h-4c-1.106 0-2 0.894-2 2v16c0 1.106 0.894 2 2 2h4c1.106 0 2 0.894 2 2s-0.894 2-2 2h-4c-3.313 0-6-2.688-6-6v-16c0-3.313 2.688-6 6-6h4c1.106 0 2 0.894 2 2s-0.894 2-2 2z"></path>
</svg>
