<!-- Generated by IcoMoon.io -->
<svg version="1.1" xmlns="http://www.w3.org/2000/svg" width="32" height="32" viewBox="0 0 32 32">
<title>sign-up-2</title>
<path d="M22 6h4c1.106 0 2 0.894 2 2v16c0 1.106-0.894 2-2 2h-4c-1.106 0-2 0.894-2 2s0.894 2 2 2h4c3.313 0 6-2.688 6-6v-16c0-3.313-2.688-6-6-6h-4c-1.106 0-2 0.894-2 2s0.894 2 2 2zM21.413 17.413c0.781-0.781 0.781-2.050 0-2.831l-8-8c-0.781-0.781-2.050-0.781-2.831 0s-0.781 2.050 0 2.831l4.588 4.588h-13.169c-1.106 0-2 0.894-2 2s0.894 2 2 2h13.169l-4.588 4.587c-0.781 0.781-0.781 2.050 0 2.831s2.050 0.781 2.831 0l8-8z"></path>
</svg>
