<!-- Generated by IcoMoon.io -->
<svg version="1.1" xmlns="http://www.w3.org/2000/svg" width="28" height="32" viewBox="0 0 28 32">
<title>skype</title>
<path d="M26.544 18.738c0.181-0.875 0.294-1.806 0.294-2.738 0-7.094-5.744-12.831-12.831-12.831-0.931 0-1.856 0.106-2.738 0.294-1.188-0.919-2.662-1.462-4.269-1.462-3.862 0-7 3.137-7 7 0 1.606 0.544 3.081 1.456 4.262-0.181 0.875-0.294 1.806-0.294 2.738 0 7.094 5.744 12.831 12.831 12.831 0.931 0 1.856-0.106 2.738-0.294 1.188 0.913 2.663 1.456 4.262 1.456 3.863 0 7-3.137 7-7 0.006-1.6-0.538-3.075-1.45-4.256zM14.381 24.456c-4.1 0-7.531-1.825-7.531-4.063 0-1 0.563-1.913 1.844-1.913 1.95 0 2.131 2.806 5.506 2.806 1.606 0 2.644-0.712 2.644-1.644 0-1.169-1-1.35-2.625-1.75-3.906-0.962-7.362-1.375-7.362-5.45 0-3.7 3.663-5.069 6.819-5.069 3.444 0 6.925 1.369 6.925 3.463 0 1.056-0.712 1.988-1.894 1.988-1.769 0-1.825-2.094-4.688-2.094-1.606 0-2.625 0.438-2.625 1.406 0 1.238 1.3 1.363 4.319 2.063 2.588 0.581 5.669 1.675 5.669 4.85 0 3.694-3.569 5.406-7 5.406z"></path>
</svg>
