<!-- Generated by IcoMoon.io -->
<svg version="1.1" xmlns="http://www.w3.org/2000/svg" width="28" height="32" viewBox="0 0 28 32">
<title>twitter-square</title>
<path d="M4 2c-2.206 0-4 1.794-4 4v20c0 2.206 1.794 4 4 4h20c2.206 0 4-1.794 4-4v-20c0-2.206-1.794-4-4-4h-20zM21.956 12.456v0c0 5.419-4.125 11.662-11.662 11.662-2.325 0-4.481-0.675-6.294-1.837 0.331 0.038 0.65 0.050 0.987 0.050 1.919 0 3.681-0.65 5.088-1.75-1.8-0.038-3.313-1.219-3.831-2.844 0.631 0.094 1.2 0.094 1.85-0.075-1.875-0.381-3.281-2.031-3.281-4.025v-0.050c0.544 0.306 1.181 0.494 1.85 0.519-0.563-0.375-1.025-0.881-1.344-1.475s-0.487-1.262-0.481-1.938c0-0.762 0.2-1.463 0.556-2.069 2.019 2.487 5.050 4.112 8.45 4.287-0.581-2.781 1.5-5.037 4-5.037 1.181 0 2.244 0.494 2.994 1.294 0.925-0.175 1.813-0.519 2.6-0.988-0.306 0.95-0.95 1.75-1.8 2.256 0.825-0.088 1.625-0.319 2.363-0.637-0.556 0.819-1.256 1.544-2.056 2.125 0.012 0.175 0.012 0.356 0.012 0.531z"></path>
</svg>
