<!-- Generated by IcoMoon.io -->
<svg version="1.1" xmlns="http://www.w3.org/2000/svg" width="32" height="32" viewBox="0 0 32 32">
<title>viber</title>
<path d="M27.75 3.119c-0.794-0.731-4.006-3.063-11.169-3.094 0 0-8.444-0.506-12.556 3.269-2.288 2.288-3.094 5.644-3.181 9.8s-0.194 11.944 7.313 14.056h0.006l-0.006 3.225s-0.050 1.306 0.813 1.569c1.037 0.325 1.65-0.669 2.644-1.738 0.544-0.587 1.294-1.45 1.863-2.106 5.137 0.431 9.081-0.556 9.531-0.7 1.038-0.337 6.906-1.087 7.856-8.875 0.988-8.037-0.475-13.113-3.113-15.406zM28.619 17.938c-0.806 6.5-5.563 6.913-6.438 7.194-0.375 0.119-3.844 0.981-8.2 0.7 0 0-3.25 3.919-4.262 4.938-0.331 0.331-0.694 0.3-0.688-0.356 0-0.431 0.025-5.356 0.025-5.356-0.006 0-0.006 0 0 0-6.362-1.762-5.987-8.394-5.919-11.863s0.725-6.313 2.663-8.225c3.481-3.156 10.65-2.688 10.65-2.688 6.056 0.025 8.956 1.85 9.631 2.463 2.231 1.912 3.369 6.488 2.538 13.194zM19.931 12.887c0.025 0.537-0.781 0.575-0.806 0.037-0.069-1.375-0.712-2.044-2.038-2.119-0.538-0.031-0.488-0.838 0.044-0.806 1.744 0.094 2.712 1.094 2.8 2.888zM21.2 13.594c0.063-2.65-1.594-4.725-4.738-4.956-0.531-0.037-0.475-0.844 0.056-0.806 3.625 0.262 5.556 2.756 5.488 5.781-0.006 0.537-0.819 0.512-0.806-0.019zM24.137 14.431c0.006 0.537-0.806 0.544-0.806 0.006-0.038-5.094-3.431-7.869-7.55-7.9-0.531-0.006-0.531-0.806 0-0.806 4.606 0.031 8.313 3.213 8.356 8.7zM23.431 20.563v0.012c-0.675 1.188-1.938 2.5-3.238 2.081l-0.012-0.019c-1.319-0.369-4.425-1.969-6.387-3.531-1.012-0.8-1.938-1.744-2.65-2.65-0.644-0.806-1.294-1.762-1.925-2.912-1.331-2.406-1.625-3.481-1.625-3.481-0.419-1.3 0.887-2.563 2.081-3.237h0.012c0.575-0.3 1.125-0.2 1.494 0.244 0 0 0.775 0.925 1.106 1.381 0.313 0.425 0.731 1.106 0.95 1.488 0.381 0.681 0.144 1.375-0.231 1.662l-0.75 0.6c-0.381 0.306-0.331 0.875-0.331 0.875s1.113 4.206 5.269 5.269c0 0 0.569 0.050 0.875-0.331l0.6-0.75c0.288-0.375 0.981-0.613 1.663-0.231 0.919 0.519 2.087 1.325 2.863 2.056 0.438 0.356 0.538 0.9 0.238 1.475z"></path>
</svg>
