<!-- Generated by IcoMoon.io -->
<svg version="1.1" xmlns="http://www.w3.org/2000/svg" width="28" height="32" viewBox="0 0 28 32">
<title>vk</title>
<path d="M1.968 3.968c-1.968 1.968-1.968 5.136-1.968 11.472v1.12c0 6.336 0 9.504 1.968 11.472s5.136 1.968 11.472 1.968h1.12c6.336 0 9.504 0 11.472-1.968s1.968-5.136 1.968-11.472v-1.12c0-6.336 0-9.504-1.968-11.472s-5.136-1.968-11.472-1.968h-1.12c-6.336 0-9.504 0-11.472 1.968zM4.725 10.517h3.197c0.105 5.343 2.462 7.607 4.328 8.073v-8.073h3.010v4.608c1.843-0.198 3.78-2.298 4.433-4.608h3.010c-0.246 1.198-0.737 2.332-1.442 3.332s-1.608 1.843-2.653 2.478c1.167 0.579 2.198 1.4 3.025 2.408s1.43 2.179 1.77 3.437h-3.313c-0.305-1.093-0.927-2.071-1.786-2.812s-1.918-1.212-3.044-1.353v4.165h-0.362c-6.382 0-10.022-4.375-10.173-11.655z"></path>
</svg>
