<svg width="60" height="60" viewBox="0 0 60 60" fill="none" xmlns="http://www.w3.org/2000/svg">
<path d="M11.412 26.512H16.02L18.936 34.972L21.888 26.512H26.46L22.068 38.14L25.308 46.276L32.544 26.44H37.944L27.72 52H23.436L18.936 41.272L14.472 52H10.188L0 26.44H5.328L12.6 46.276L15.768 38.14L11.412 26.512Z" fill="white"/>
<path d="M33.412 6.512H38.02L40.936 14.972L43.888 6.512H48.46L44.068 18.14L47.308 26.276L54.544 6.44H59.944L49.72 32H45.436L40.936 21.272L36.472 32H32.188L22 6.44H27.328L34.6 26.276L37.768 18.14L33.412 6.512Z" fill="white"/>
</svg>
