<svg xmlns="http://www.w3.org/2000/svg" width="140" height="23" fill="none" viewBox="0 0 140 23"><circle cx="8.5" cy="11" r="8" stroke="#333"/><path fill="#333" d="M25.84 17.58q1.12 0 1.84-.36.74-.38.74-1.26 0-.42-.14-.72-.12-.3-.42-.54t-.8-.46q-.48-.22-1.2-.52a30 30 0 0 1-1.1-.48 5 5 0 0 1-.92-.58 2.7 2.7 0 0 1-.64-.8q-.24-.46-.24-1.12 0-1.26.94-2.04.96-.78 2.62-.78 1.06 0 1.74.18.7.18.98.32l-.3 1.16a8 8 0 0 0-.82-.32q-.56-.2-1.66-.2-.44 0-.84.1a1.9 1.9 0 0 0-.68.28q-.3.18-.48.48-.18.28-.18.7t.16.72.46.54q.32.22.76.42.46.2 1.04.44.6.24 1.14.5.56.24.98.6.42.34.68.84.26.48.26 1.22 0 1.4-1.06 2.12-1.04.72-2.86.72-1.36 0-2.08-.24-.72-.22-.96-.34l.34-1.18q.06.04.26.14.2.08.54.2.34.1.8.18.48.08 1.1.08m7.735.92h-1.3V8.16h1.3zm.3-13.46q0 .46-.28.74a.96.96 0 0 1-.68.26.96.96 0 0 1-.68-.26q-.28-.28-.28-.74t.28-.72a.93.93 0 0 1 .68-.28q.4 0 .68.28.28.26.28.72m3.146 3.48a29 29 0 0 1 1.5-.36q.94-.2 2.42-.2 1.96 0 2.84 1.14.1-.08.38-.26.3-.2.74-.4a5.7 5.7 0 0 1 1.02-.34q.6-.14 1.32-.14 1.18 0 1.9.36.74.34 1.14.98.399.62.54 1.5.14.88.14 1.92v5.78h-1.3v-5.36q0-1.02-.1-1.76-.081-.76-.36-1.24a1.64 1.64 0 0 0-.76-.74q-.5-.26-1.3-.26-.6 0-1.1.12a4.2 4.2 0 0 0-1.44.58 10 10 0 0 0-.32.24q.18.52.26 1.18.1.64.1 1.36v5.88h-1.3v-5.36q0-1.02-.1-1.76-.081-.76-.36-1.24a1.72 1.72 0 0 0-.8-.74q-.5-.26-1.34-.26-.94 0-1.6.1-.64.1-.82.18v9.08h-1.3zm18.565 8.12q.18.14.44.3.28.16.64.3t.78.24q.42.08.88.08.96 0 1.6-.32a2.9 2.9 0 0 0 1.06-.9 3.9 3.9 0 0 0 .58-1.34q.18-.78.18-1.64 0-2.04-1.02-3.12-1.02-1.1-2.7-1.1-.96 0-1.56.1-.58.08-.88.18zm0 5.56h-1.3V8.52q.58-.2 1.48-.38t2.28-.18q1.14 0 2.06.38.94.36 1.6 1.06.68.7 1.04 1.7.38 1 .38 2.26a7.1 7.1 0 0 1-.32 2.18q-.3.98-.9 1.7a4.2 4.2 0 0 1-1.48 1.1q-.86.4-1.98.4-1.02 0-1.78-.28-.74-.3-1.08-.56zm12.98-3.52a4.2 4.2 0 0 1-1.16-.18 2.1 2.1 0 0 1-.82-.44 2.2 2.2 0 0 1-.5-.8q-.16-.5-.16-1.24V3.22l1.3-.24v13q0 .48.08.78.1.28.28.46.18.16.46.24.3.08.7.14zm1.858-5.36q0-1.36.38-2.36.4-1.02 1.02-1.7a4 4 0 0 1 1.44-1 4.4 4.4 0 0 1 1.68-.34q1.9 0 3.02 1.24 1.14 1.24 1.14 3.82 0 .16-.02.32 0 .16-.02.3h-7.26q.06 1.9.94 2.92t2.8 1.02q1.06 0 1.68-.2.621-.2.9-.34l.24 1.12q-.28.16-1.06.38-.759.22-1.8.22-1.36 0-2.32-.4a4.15 4.15 0 0 1-1.58-1.12 4.4 4.4 0 0 1-.9-1.7 8 8 0 0 1-.28-2.18m7.34-.82q-.04-1.62-.76-2.52t-2.04-.9q-.699 0-1.26.28-.54.28-.96.76-.4.46-.64 1.08a4.7 4.7 0 0 0-.26 1.3z"/><rect width="31" height="16" x="86.5" y="3" stroke="#333" rx="8"/><circle cx="131.5" cy="11" r="8" stroke="#333"/></svg>