<svg xmlns="http://www.w3.org/2000/svg" width="16" height="16" fill='#fe3e57'><path d="M4.57 0c.633 0 1.145.445 1.145 1v1h4.57V1c0-.555.512-1 1.145-1s1.14.445 1.14 1v1h1.715C15.23 2 16 2.672 16 3.5V5H0V3.5C0 2.672.77 2 1.715 2H3.43V1c0-.555.507-1 1.14-1zM0 6h16v8.5c0 .828-.77 1.5-1.715 1.5H1.715C.77 16 0 15.328 0 14.5zm2.285 2.5v1c0 .273.258.5.57.5H4c.313 0 .57-.227.57-.5v-1c0-.273-.258-.5-.57-.5H2.855c-.312 0-.57.227-.57.5zm4.57 0v1c0 .273.258.5.575.5h1.14c.317 0 .575-.227.575-.5v-1c0-.273-.258-.5-.575-.5H7.43c-.317 0-.575.227-.575.5zM12 8c-.313 0-.57.227-.57.5v1c0 .273.258.5.57.5h1.145c.312 0 .57-.227.57-.5v-1c0-.273-.258-.5-.57-.5zm-9.715 4.5v1c0 .273.258.5.57.5H4c.313 0 .57-.227.57-.5v-1c0-.273-.258-.5-.57-.5H2.855c-.312 0-.57.227-.57.5zM7.43 12c-.317 0-.575.227-.575.5v1c0 .273.258.5.575.5h1.14c.317 0 .575-.227.575-.5v-1c0-.273-.258-.5-.575-.5zm4 .5v1c0 .273.258.5.57.5h1.145c.312 0 .57-.227.57-.5v-1c0-.273-.258-.5-.57-.5H12c-.313 0-.57.227-.57.5zm0 0"/></svg>