<?xml version="1.0" encoding="UTF-8"?>
<svg xmlns="http://www.w3.org/2000/svg" xmlns:xlink="http://www.w3.org/1999/xlink" width="30px" height="30px" viewBox="0 0 30 30" version="1.1">
<g id="surface1">
<path style=" stroke:none;fill-rule:nonzero;fill:rgb(0%,0%,0%);fill-opacity:1;" d="M 0.226562 3.21875 C 0.617188 2.398438 1.4375 1.875 2.34375 1.875 L 27.65625 1.875 C 28.5625 1.875 29.382812 2.398438 29.773438 3.21875 C 30.160156 4.039062 30.042969 5.003906 29.46875 5.707031 L 18.75 18.804688 L 18.75 26.25 C 18.75 26.960938 18.351562 27.609375 17.710938 27.925781 C 17.074219 28.242188 16.320312 28.179688 15.75 27.75 L 12 24.9375 C 11.527344 24.585938 11.25 24.03125 11.25 23.4375 L 11.25 18.804688 L 0.527344 5.703125 C -0.0429688 5.003906 -0.164062 4.03125 0.226562 3.21875 Z M 0.226562 3.21875 "/>
</g>
</svg>
