<svg xmlns="http://www.w3.org/2000/svg" width="16" height="18"><path d="M8.004 4.957c-2.274 0-4.106 1.805-4.106 4.04 0 2.237 1.832 4.038 4.106 4.038 2.27 0 4.101-1.8 4.101-4.039 0-2.234-1.832-4.039-4.101-4.039zm0 6.664c-1.469 0-2.668-1.176-2.668-2.625 0-1.45 1.195-2.625 2.668-2.625s2.668 1.176 2.668 2.625c0 1.45-1.2 2.625-2.668 2.625zm5.226-6.828a.945.945 0 01-.957.941.948.948 0 01-.957-.941c0-.52.43-.941.957-.941.532 0 .957.421.957.941zm2.72.957c-.06-1.266-.352-2.383-1.294-3.305-.933-.918-2.07-1.207-3.351-1.27-1.325-.073-5.285-.073-6.606 0-1.277.06-2.414.348-3.351 1.27-.942.918-1.23 2.04-1.293 3.301-.075 1.3-.075 5.2 0 6.5.058 1.262.351 2.379 1.293 3.3.937.923 2.07 1.208 3.351 1.274 1.32.075 5.281.075 6.606 0 1.28-.062 2.418-.347 3.351-1.273.938-.922 1.23-2.04 1.293-3.3.074-1.302.074-5.196 0-6.497zm-1.708 7.89a2.676 2.676 0 01-1.52 1.497c-1.054.414-3.554.316-4.718.316-1.164 0-3.668.094-4.719-.316a2.675 2.675 0 01-1.52-1.496c-.417-1.04-.324-3.5-.324-4.645 0-1.144-.09-3.61.325-4.644a2.675 2.675 0 011.52-1.497c1.054-.41 3.554-.316 4.718-.316 1.164 0 3.668-.094 4.719.316a2.68 2.68 0 011.52 1.497c.417 1.039.32 3.5.32 4.644 0 1.145.097 3.61-.32 4.645zm0 0"/></svg>