<svg xmlns="http://www.w3.org/2000/svg" width="13" height="16"><path d="M6.906.203C3.434.203 0 2.34 0 5.801 0 8 1.34 9.25 2.152 9.25c.336 0 .528-.863.528-1.105 0-.293-.801-.91-.801-2.122 0-2.511 2.07-4.293 4.754-4.293 2.304 0 4.012 1.211 4.012 3.434 0 1.656-.723 4.77-3.06 4.77-.843 0-1.562-.563-1.562-1.368 0-1.183.895-2.324.895-3.543 0-2.07-3.18-1.695-3.18.805 0 .524.07 1.106.325 1.586-.47 1.856-1.422 4.621-1.422 6.531 0 .594.09 1.172.152 1.766.113.117.059.105.234.047 1.707-2.156 1.645-2.578 2.418-5.403.414.73 1.492 1.125 2.344 1.125C11.387 11.48 13 8.246 13 5.332 13 2.227 10.094.203 6.906.203zm0 0"/></svg>