<svg width="50" height="50" viewBox="0 0 50 50" fill="none" xmlns="http://www.w3.org/2000/svg">
<g clip-path="url(#clip0_1_224)">
<path fill-rule="evenodd" clip-rule="evenodd" d="M46.3885 14.6162L44.7545 16.2502C41.214 13.1643 36.6745 11.4383 31.9545 11.4383C28.7766 11.4383 25.6004 12.2553 22.877 13.7072L29.7757 6.80851C30.3204 7.17106 30.9553 7.35319 31.5919 7.35319C32.4991 7.35319 33.4081 6.99064 34.1332 6.26383C35.5851 4.81191 35.5851 2.54128 34.1332 1.08936C33.4064 0.362553 32.4991 0 31.5919 0C30.6847 0 29.7757 0.362553 29.0506 1.08936C27.8711 2.36085 27.6889 4.17532 28.506 5.53702L19.7911 14.2519L18.157 12.6179L13.7094 17.0655L15.3434 18.6996L6.44638 27.5966C5.9017 27.234 5.26681 27.0519 4.63021 27.0519C3.72298 27.0519 2.81404 27.4145 2.08894 28.1413C0.637021 29.5932 0.637021 31.8638 2.08894 33.3157C2.81574 33.9506 3.72298 34.3149 4.63021 34.3149C5.53745 34.3149 6.44638 33.9523 7.17149 33.2255C8.35106 32.046 8.53319 30.2298 7.71617 28.7779L14.6149 21.8791C10.9843 28.8698 11.8013 37.5847 17.1562 43.7566L15.5221 45.4809L20.0617 49.9285L24.5094 45.4809L20.0617 41.0332L18.5179 42.577C13.2532 36.4034 12.9809 27.5081 17.4285 20.9719L18.1553 21.6987L22.6949 17.2511L21.8779 16.5243C24.7834 14.4357 28.3238 13.3464 31.9545 13.3464C36.2217 13.3464 40.2149 14.8902 43.483 17.6136L41.8489 19.1574L46.3885 23.6051L50.8362 19.1574L46.3885 14.6179V14.6162ZM21.9681 45.4809L20.0617 47.3872L18.1553 45.4809L20.0617 43.5745L21.9681 45.4809ZM30.3204 2.45106C30.683 2.08851 31.1374 1.90638 31.5919 1.90638C32.0464 1.90638 32.4991 2.08851 32.8634 2.45106C33.5902 3.17787 33.5902 4.26723 32.8634 4.99234C32.5009 5.35489 32.0464 5.53702 31.5919 5.53702C31.1374 5.53702 30.6847 5.35489 30.3204 4.99234C29.5936 4.35745 29.5936 3.17617 30.3204 2.45106ZM5.9 31.954C5.53745 32.3166 5.08298 32.4987 4.62851 32.4987C4.17404 32.4987 3.72128 32.3166 3.35702 31.954C2.99447 31.6817 2.81234 31.2272 2.81234 30.6826C2.81234 30.2281 2.99447 29.7753 3.35702 29.4111C3.71957 29.0468 4.17404 28.8664 4.62851 28.8664C5.08298 28.8664 5.53574 29.0485 5.9 29.4111C6.62681 30.1379 6.62681 31.3174 5.9 31.9523V31.954ZM18.0651 19.154L16.1587 17.2477L18.0651 15.3413L19.9715 17.2477L18.0651 19.154ZM46.3885 21.0604L44.4821 19.154L46.3885 17.2477L48.2949 19.154L46.3885 21.0604Z" fill="#333333"/>
</g>
<defs>
<clipPath id="clip0_1_224">
<rect width="50" height="50" fill="white"/>
</clipPath>
</defs>
</svg>
