<svg width="1100" height="638" fill="none" xmlns="http://www.w3.org/2000/svg"><path d="M84.587 146.595h0c-10.494 9.176-22.721 20.505-29.376 32.123-3.32 5.798-5.2 11.581-4.855 17.145.345 5.529 2.895 10.974 8.698 16.116v.001c12.014 10.653 27.908 17.84 44.639 24.515 3.292 1.314 6.617 2.607 9.949 3.904 13.548 5.27 27.217 10.589 39.259 17.463M84.587 146.595l67.819 112.135M84.587 146.595c2.332-2.042 17.64-13.534 33.517-23.953 7.934-5.206 15.973-10.119 22.578-13.441 3.306-1.663 6.217-2.909 8.556-3.599 1.17-.344 2.165-.54 2.976-.589.549-.034.977.003 1.302.083m-68.929 41.499l10.062 21.93m58.252 89.337l-.495.868m.495-.868s0 0 0 0l-.495.868m.495-.868c7.985 4.555 12.306 10.138 13.94 16.322 1.625 6.151.547 12.739-1.938 19.246-4.425 11.586-13.469 23.284-20.544 32.437a700.78 700.78 0 00-2.449 3.178c-36.853 48.157-68.964 99.544-96.44 149.943v.001c-1.797 3.294-6.467 14.401-12.157 29.309-5.678 14.877-12.345 33.463-18.133 51.661-5.792 18.21-10.69 35.99-12.85 49.27-1.082 6.655-1.461 12.094-.961 15.868.17 1.287.438 2.336.788 3.157M152.406 258.73c29.548 16.858 6.187 47.084-8.838 66.524-.848 1.097-1.669 2.159-2.453 3.183-36.889 48.206-69.028 99.638-96.522 150.073-7.001 12.827-55.517 139.153-42.112 152.032a4.4 4.4 0 01-.043-.139c-.18-.61-.267-1.334-.281-2.149m0 0c.163.384.344.718.542 1.004.202.291.421.533.66.728-3.708-14.32 44.077-119.529 48.655-126.83 34.684-55.098 82.938-106.769 132.537-157.497M2.157 628.254a18.97 18.97 0 01.1-2.158c.34-3.463 1.508-8.313 3.242-14.056 3.474-11.51 9.296-26.846 15.64-42.376 6.346-15.536 13.226-31.293 18.827-43.654 2.8-6.181 5.281-11.516 7.217-15.553 1.923-4.01 3.335-6.797 3.984-7.832v-.001c34.748-55.199 83.071-106.938 132.669-157.664l.715.699m0 0l-.715-.699c9.998-10.225 20.106-21.855 26.976-33.951 6.874-12.103 10.436-24.544 7.561-36.457m-33.822 71.107c20.036-20.49 40.714-46.812 34.795-71.342m-79.599-50.127c-44.25-15.571-68.505-24.196-45.098-55.665m45.098 55.665l-.332.944c-11.053-3.89-20.901-7.36-29.069-10.866-8.155-3.501-14.735-7.077-19.2-11.215-4.501-4.173-6.894-8.963-6.546-14.803.343-5.765 3.35-12.395 9.246-20.321l.001-.002c.687-.92 2.218-2.58 4.302-4.737 2.102-2.176 4.814-4.906 7.906-7.99 2.305-2.3 4.82-4.796 7.453-7.408 4.436-4.401 9.204-9.133 13.86-13.811 7.418-7.454 14.523-14.746 19.498-20.306 2.492-2.786 4.423-5.108 5.591-6.786.554-.796.897-1.392 1.059-1.793M139.747 224.19c1.158.408 2.325.817 3.498 1.229 32.742 11.489 70.241 24.648 76.101 48.898m-79.599-50.127l-.332.944 3.481 1.222c15.804 5.546 32.625 11.449 46.474 18.783 14.911 7.896 26.077 17.301 29.003 29.413M94.649 168.525c1.76-2.358 9.857-10.392 19.559-20.018 18.577-18.434 43.04-42.708 40.173-44.154l-59.732 64.172zm58.867-63.429c.161.04.298.09.411.148a.593.593 0 01-.314-.437l-.002-.018c-.001 0-.005.067-.064.227l-.031.08zm65.83 169.221l-.973.235m.973-.235l-.973.234v.001M116.262 40.343h-.001c-2.64 1.138-5.479.814-8.346-.378-2.856-1.188-5.839-3.276-8.873-5.833-4.096-3.453-8.424-7.887-12.772-12.342-2.071-2.122-4.147-4.249-6.205-6.277-3.216-3.164-6.404-6.102-9.513-8.473-3.116-2.376-6.104-4.144-8.915-5.015-2.79-.865-5.367-.839-7.753.314-2.407 1.163-4.757 3.54-6.937 7.646h0c-1.828 3.443-1.965 6.94-.745 10.505 1.232 3.601 3.86 7.294 7.6 11.01 7.481 7.434 19.18 14.737 32.089 21.394 22.451 11.579 48.307 21.07 61.288 25.837 1.934.71 3.582 1.315 4.891 1.806h0c18.936 7.113 36.595 17.64 54.214 28.143 5.08 3.029 10.157 6.055 15.26 8.997h0c36.892 21.278 54.914 24.759 73.278 27.609h.002c9.409 1.48 24.327 3.032 42.226.88h.001c12.407-1.482 27.179-3.281 39.64-12.44 6.77-4.989 11.005-10.796 13.055-13.608l.044-.06.001-.001c2.823-3.892 5.016-7.824 6.392-10.813.287-.624.537-1.203.748-1.728l-.13.162-.495.618c-1.802 2.241-4.462 5.485-8.241 9.311l-.001.001-.26.262c-3.068 3.101-7.096 7.171-12.011 10.509-11.337 7.726-24.188 9.571-31.08 10.492M116.262 40.343l228.319 97.537M116.262 40.343c.54-.233.946-.647 1.255-1.085.312-.441.568-.968.788-1.52.439-1.098.799-2.462 1.15-3.792.359-1.36.713-2.693 1.147-3.839.442-1.168.915-1.991 1.431-2.439l-5.771 12.675zm228.451 98.528l-.132-.991m.132.991s0 0 0 0l-.132-.991m.132.991c-12.388 1.661-21.776.337-33.015-1.249l-1.11-.156h-.001c-12.691-1.8-24.398-4.821-35.382-9.069m69.376 9.483c-12.251 1.642-21.519.335-32.776-1.253l-1.078-.152c-12.62-1.789-24.253-4.792-35.161-9.011m-.361.933s0 0 0 0l.361-.933m-.361.933c-11.006-4.248-21.257-9.719-31.078-16.41l-.003-.003c-1.769-1.215-12.559-8.88-22.819-16.34l-.001-.001c-5.12-3.731-10.122-7.422-13.802-10.243-1.838-1.408-3.358-2.609-4.4-3.491a18.649 18.649 0 01-1.227-1.111c-.138-.142-.28-.3-.386-.458a1.375 1.375 0 01-.181-.372 1.068 1.068 0 01.149-.936c2.169-3.024 5.45-4.925 8.99-6.394 1.776-.736 3.646-1.375 5.507-1.99l1.15-.377a141.97 141.97 0 004.366-1.484c3.596-1.31 6.779-2.805 9.053-5.052 2.23-2.203 3.651-5.194 3.593-9.666-.051-3.94-1.275-6.945-3.271-9.273-2.012-2.345-4.862-4.062-8.249-5.307-6.8-2.499-15.506-3.03-23.166-3.115-3.464-.034-6.657.168-9.822.368-1.438.091-2.87.182-4.319.25-4.611.238-9.295.238-14.562-.77m104.478 92.175l.361-.933m0 0c-10.931-4.218-21.114-9.653-30.876-16.304l-73.963-74.938m0 0c-5.441-1.038-9.831-3.214-13.985-5.374l-1.159-.605c-3.76-1.967-7.387-3.864-11.646-4.983h-.001l-.181-.048c-4.505-1.19-8.082-2.136-11.454-2.031-3.331.103-6.542 1.26-10.268 4.487l48.694 8.554zm227.026 68.737l.08-.086c.059.117.182.29.427.389l.376-.926-.362.932a.807.807 0 00.43.045 3.602 3.602 0 01-.027.126l-.924-.48zm-63.478 233.438a1310.237 1310.237 0 00-10.157 21.786 514.02 514.02 0 00-9.595 22.376l19.752-44.162zm0 0c1.208-5.807 1.32-10.38.358-13.673-.962-3.293-2.342-5.827-4.183-7.601l3.825 21.274zm30.932 31.711l-.002.003-9.708 21.948-.912-.412v.001c-3.168 7.008-5.445 13.255-6.864 18.76-.597 2.256-.894 4.112-.822 5.508.07 1.361.533 2.676 1.867 3.122 1.085.363 2.405.088 3.793-.484 1.428-.588 3.134-1.579 5.112-2.943 6.878-4.468 14.14-10.346 21.764-17.604 7.636-7.249 15.207-14.999 22.735-23.226a636.303 636.303 0 0021.706-24.963c6.93-8.416 13.096-16.053 18.475-22.913a2717.003 2717.003 0 0013.338-17.115c1.751-2.261 3.135-4.001 4.15-5.22.509-.61.919-1.082 1.233-1.421.157-.169.284-.299.383-.392a1.76 1.76 0 01.151-.134l.024-.015.022-.017c.544-.403 1.408-.663 2.757-.656a7.495 7.495 0 013.595.925 6.435 6.435 0 012.517 2.409c.441.769.493 1.853-.215 3.434-.583 1.122-2.398 4.134-5.523 9.035-3.128 4.905-7.309 11.028-12.59 18.372-5.278 7.338-11.41 15.436-18.44 24.316-7.028 8.876-14.601 17.946-22.678 27.211a472.798 472.798 0 01-25.571 27.022v.001c-8.937 8.753-17.973 16.571-27.087 23.477-1.562.979-3.852 2.467-6.847 4.461l-.005.003c-2.957 1.991-6.463 3.883-10.504 5.671l-.004.002c-4.013 1.798-8.332 3.191-12.942 4.242-4.551 1.016-8.977 1.224-13.307.631-3.328-.579-5.866-1.862-7.698-3.813l-.003-.004c-1.883-1.984-3.192-4.623-3.927-7.996v-.001c-.738-3.365-.913-7.287-.503-11.783.412-4.498 1.215-9.371 2.389-14.556l.79-3.486-2.484 2.57c-4.243 4.39-9.469 8.831-15.665 13.345a160.606 160.606 0 01-19.304 12.057c-6.694 3.539-13.162 6.49-19.447 8.878-6.27 2.383-11.539 3.621-15.851 3.767-6.882.155-12.736-.844-17.613-2.936-4.923-2.111-8.895-4.905-11.965-8.389-3.093-3.509-5.331-7.43-6.722-11.768-1.404-4.375-2.08-8.737-2.057-13.092.034-6.105 1.037-13.161 3.006-21.155 1.966-7.98 4.865-16.248 8.659-24.827 3.81-8.543 8.573-17.022 14.313-25.392 5.731-8.356 12.411-16.126 20.086-23.308l.001-.001c7.643-7.173 16.189-13.392 25.663-18.636 9.441-5.225 19.938-8.878 31.499-10.931l.005-.001c7.125-1.298 13.429-1.644 18.923-1.039h0c5.544.609 10.297 1.916 14.343 3.903 4.053 2.012 7.362 4.601 9.966 7.804 2.639 3.244 4.588 6.644 5.899 10.22l.773 2.109 1.05-1.986c2.35-4.444 4.457-8.3 6.321-11.59 1.864-3.269 3.367-5.764 4.512-7.493l.017-.026.015-.026c3.083-5.339 6.243-9.134 9.391-11.442 3.243-2.357 6.221-3.931 8.896-4.744 2.737-.832 5.034-1.134 6.877-.947 2.106.251 3.569.374 4.392.378 3.353.019 6.015.725 8.02 2.057 2.124 1.412 3.721 2.98 4.772 4.666 1.078 1.751 1.753 3.56 2.004 5.431.262 1.974.29 3.564.13 4.79-.784 3.558-2.51 8.114-5.236 13.685-2.747 5.611-5.932 11.788-9.558 18.554-3.625 6.767-7.602 13.968-11.91 21.605a1218.242 1218.242 0 00-12.37 22.51zm-109.135 59.426h.013l.014-.001c3.475-.188 7.842-1.532 13.059-3.941l.002-.001c5.227-2.424 10.64-5.743 16.236-9.926 5.602-4.187 11.048-9.051 16.36-14.588 5.331-5.558 9.876-11.563 13.632-18.015l.036-.063.027-.067a511.678 511.678 0 019.576-22.333l.001-.002a1315.623 1315.623 0 0110.15-21.769l.052-.109.024-.118c1.221-5.869 1.369-10.632.339-14.157-.993-3.401-2.444-6.109-4.449-8.041l-.005-.004c-1.964-1.87-4.188-3.085-6.728-3.64l-.007-.002c-2.337-.493-4.254-.759-5.7-.77-3.792-.225-8.192 1.388-13.125 4.601-4.945 3.222-10.16 7.574-15.665 12.997l-.001.002c-5.507 5.447-10.99 11.655-16.494 18.642a225.443 225.443 0 00-15.034 21.55l-.001.001c-4.524 7.39-8.373 14.637-11.524 21.742-3.177 7.115-5.143 13.472-5.864 19.016h0c-.722 5.574-.074 10.188 2.114 13.77l.002.004c2.325 3.765 6.796 5.389 12.96 5.222zm214.871 3.637l-.994.106s0 0 0 0c-1.281-11.997-3.023-23.033-5.18-33.111-2.186-10.085-4.226-18.814-6.119-26.19l-.09-.351.154-.326c1.564-3.3 3.082-6.533 4.557-9.722a727.028 727.028 0 014.567-9.744l.337-.701.762.154c5.976 1.203 13.047 2.349 21.172 3.458l.002.001c8.122 1.128 16.75 1.848 25.952 2.18 9.187.332 18.463.058 27.83-.867h.002c9.335-.899 18.105-2.837 26.292-5.767 8.168-2.924 15.518-7.011 22.056-12.239 6.48-5.181 11.45-11.954 14.944-20.326 1.12-2.903 1.128-5.333.214-7.359-.963-2.131-2.39-3.551-4.257-4.325-1.842-.756-3.929-.67-6.364.389l-.002.001c-2.338 1.009-4.384 3.202-6.086 6.746-3.075 6.646-8.536 11.587-16.321 14.825-7.708 3.207-16.707 5.268-26.982 6.177-10.255.908-21.283.956-33.062.105l-45.088 175.932m1.704-79.046c1.285 12.048 1.999 24.769 2.122 38.162.123 13.392-.823 27.084-2.837 41.031m.715-79.193c-1.284-12.028-3.031-23.099-5.197-33.215l5.197 33.215zm-.715 79.193l-.989-.148v.001m.989.147l-.99-.143.001-.004m.989.147c-3.028 20.17-6.998 37.285-11.93 51.325-4.933 14.04-10.331 25.574-16.194 34.557-5.863 8.983-11.933 15.939-18.166 20.87m45.301-106.899c-3.022 20.128-6.979 37.178-11.885 51.141-4.915 13.991-10.282 25.446-16.087 34.341-5.823 8.921-11.824 15.787-17.949 20.633m.62.784l-.619-.785-.001.001m.62.784c-6.233 4.909-12.175 8.47-17.827 10.682l17.207-11.466m.62.784l-.62-.784m101.935-410.379c2.888-.157 5.322.452 7.335 1.777 2.068 1.375 3.635 3.144 4.718 5.318 1.059 2.168 1.516 4.561 1.318 7.2-.2 2.655-.951 5.068-2.23 7.251-8.421 13.359-17.546 28.714-27.355 46.02h0c-9.815 17.338-19.723 35.872-29.723 55.646l-.628 1.241 1.376.2a465.783 465.783 0 0034.262 3.679l10.927-128.332zm-70.954 298.722l.009-.044.005-.046c2.05-19.281 2.063-37.301.009-54.099-2.049-16.766-5.288-31.981-9.7-45.662l-.792-2.458-1.07 2.35a2058.163 2058.163 0 00-21.972 49.988c-6.999 16.483-13.188 32.187-18.611 47.113-5.423 14.926-9.969 28.772-13.639 41.494-3.671 12.727-6.161 23.824-7.483 33.284-1.323 9.457-1.271 17.073.181 22.792l.001.004c.747 2.894 1.962 5.225 3.697 6.921 1.744 1.706 3.952 2.709 6.568 3.04l.011.002c10.897 1.261 19.945-1.271 27.021-7.665 6.957-6.285 12.653-14.702 17.13-25.145v-.001c4.462-10.429 8.07-22.011 10.873-34.764v-.002a2124.866 2124.866 0 007.762-37.102z" stroke="#fff" stroke-width="2"/><path d="M667.648 340.218a1318.025 1318.025 0 00-10.158 21.785 513.283 513.283 0 00-9.594 22.376l19.752-44.161zm0 0c1.207-5.808 1.319-10.38.358-13.674-.962-3.293-2.342-5.826-4.183-7.6l3.825 21.274zm30.931 31.71l-.002.004-9.708 21.947-.911-.411-.001.001c-3.167 7.007-5.444 13.254-6.864 18.759-.596 2.257-.894 4.112-.822 5.508.071 1.361.533 2.676 1.867 3.122 1.086.363 2.405.089 3.793-.483 1.428-.589 3.135-1.58 5.112-2.944 6.879-4.467 14.141-10.346 21.764-17.604 7.636-7.249 15.207-14.999 22.735-23.226a633.91 633.91 0 0021.706-24.963c6.931-8.415 13.097-16.053 18.475-22.913 5.373-6.852 9.827-12.557 13.339-17.114 1.751-2.262 3.134-4.001 4.15-5.22.509-.611.918-1.082 1.232-1.421a8.58 8.58 0 01.383-.393c.107-.102.153-.134.152-.134l.023-.015.022-.016c.544-.404 1.408-.664 2.757-.656a7.5 7.5 0 013.596.925 6.453 6.453 0 012.517 2.408c.441.77.492 1.854-.215 3.435-.583 1.121-2.399 4.133-5.523 9.034-3.128 4.905-7.309 11.029-12.591 18.372-5.277 7.339-11.409 15.437-18.44 24.316-7.027 8.876-14.601 17.946-22.678 27.212a472.762 472.762 0 01-25.57 27.021l-.001.001c-8.936 8.753-17.972 16.571-27.086 23.477-1.562.979-3.853 2.467-6.848 4.462l-.004.003c-2.957 1.991-6.464 3.882-10.504 5.671l-.004.001c-4.013 1.798-8.333 3.192-12.943 4.243-4.55 1.015-8.976 1.223-13.306.631-3.328-.58-5.867-1.862-7.698-3.813l-.004-.004c-1.883-1.985-3.192-4.623-3.927-7.997v-.001c-.737-3.364-.913-7.287-.503-11.783.412-4.498 1.215-9.371 2.39-14.555l.79-3.486-2.484 2.57c-4.243 4.389-9.469 8.831-15.666 13.344a160.323 160.323 0 01-19.304 12.057c-6.694 3.539-13.161 6.491-19.446 8.879-6.271 2.382-11.539 3.621-15.852 3.766-6.881.155-12.735-.844-17.613-2.936-4.923-2.111-8.895-4.904-11.965-8.389-3.092-3.509-5.33-7.43-6.722-11.767-1.403-4.375-2.08-8.738-2.056-13.093.033-6.105 1.036-13.16 3.006-21.155 1.965-7.98 4.864-16.248 8.658-24.827 3.81-8.543 8.573-17.022 14.314-25.392 5.731-8.356 12.411-16.125 20.085-23.308h.001c7.643-7.174 16.19-13.393 25.663-18.636 9.441-5.226 19.938-8.879 31.5-10.931l.004-.001c7.126-1.299 13.429-1.645 18.923-1.039h.001c5.543.608 10.297 1.915 14.343 3.902 4.053 2.012 7.361 4.601 9.966 7.804 2.639 3.245 4.587 6.644 5.898 10.22l.773 2.109 1.05-1.985c2.351-4.445 4.458-8.3 6.321-11.59 1.864-3.27 3.367-5.764 4.513-7.494l.016-.025.016-.027c3.083-5.338 6.243-9.133 9.391-11.442 3.242-2.356 6.221-3.93 8.895-4.744 2.737-.832 5.034-1.133 6.878-.946 2.106.25 3.568.373 4.392.378 3.353.018 6.015.724 8.019 2.057 2.124 1.412 3.721 2.979 4.773 4.665 1.078 1.751 1.752 3.56 2.004 5.432.261 1.973.289 3.563.13 4.789-.784 3.559-2.511 8.114-5.237 13.685-2.746 5.611-5.931 11.789-9.557 18.555-3.626 6.766-7.603 13.967-11.91 21.604a1224.927 1224.927 0 00-12.371 22.51zm-109.135 59.426h.014l.013-.001c3.476-.188 7.842-1.532 13.06-3.941h.001c5.228-2.424 10.64-5.744 16.237-9.927 5.602-4.187 11.048-9.05 16.359-14.588 5.331-5.557 9.876-11.562 13.632-18.015l.037-.063.027-.067a512.727 512.727 0 019.576-22.333l.001-.002a1307.662 1307.662 0 0110.149-21.769l.052-.109.025-.118c1.22-5.868 1.368-10.631.338-14.157-.993-3.4-2.443-6.109-4.449-8.04l-.004-.005c-1.965-1.869-4.189-3.084-6.729-3.64l-.006-.001c-2.338-.494-4.254-.759-5.701-.77-3.791-.225-8.191 1.388-13.124 4.601-4.946 3.221-10.16 7.574-15.665 12.997l-.002.001c-5.507 5.448-10.99 11.656-16.493 18.643a225.622 225.622 0 00-15.035 21.549v.002c-4.524 7.389-8.374 14.636-11.524 21.741-3.177 7.115-5.143 13.472-5.864 19.016v.001c-.722 5.574-.075 10.187 2.113 13.769l.003.004c2.325 3.765 6.796 5.39 12.959 5.222z" stroke="#fff" stroke-width="2"/><path d="M797.145 257.783h-.006c-4.425.162-8.241 1.704-11.57 4.645-3.328 2.997-6.132 6.531-8.434 10.608-2.31 4.092-3.997 8.31-5.065 12.675-1.08 4.409-1.512 7.977-1.34 10.755l.001.023v.023c.144 9.212 2.131 15.83 5.765 20.061 3.736 4.351 8.081 7.172 12.997 8.492 5.005 1.344 10.026 1.667 15.029.932 5.108-.751 9.059-1.695 11.883-2.795l.018-.007.018-.006c2.928-1.012 5.507-.858 7.515.797l.006.005c1.067.895 1.567 2.074 1.397 3.448-.158 1.283-.887 2.639-2.001 4.046-.564.745-1.964 2.871-4.203 6.449l-.002.004c-2.25 3.559-4.943 8.144-8.06 13.735-3.112 5.602-6.359 11.922-9.677 18.963a195.846 195.846 0 00-8.653 21.531c-2.442 7.321-4.276 14.619-5.461 21.937-1.18 7.283-1.211 13.961-.115 20.043 1.11 6.033 3.655 11.207 7.676 15.547 3.986 4.303 9.825 7.46 17.654 9.41 8.136 1.937 16.643 1.564 25.541-1.148 8.933-2.752 17.955-7.016 27.044-12.846 9.101-5.838 18.131-12.893 27.066-21.149a379.353 379.353 0 0025.553-25.988c8.093-9.065 15.641-18.065 22.665-27.045 7.031-8.988 13.073-17.126 18.152-24.461 5.086-7.346 9.137-13.47 12.156-18.375l.001-.001c1.523-2.469 2.678-4.422 3.474-5.874.399-.726.702-1.317.915-1.778.216-.466.312-.742.341-.871.581-3.348.221-5.773-.838-7.418-1.141-1.772-2.578-2.893-4.353-3.395-1.853-.523-3.674-.495-5.534.106-1.778.603-3.082 1.724-3.953 3.423l-.002.005c-3.751 7.225-8.921 15.299-15.501 24.219-6.556 8.939-13.808 17.936-21.734 27.034a706.864 706.864 0 01-24.504 26.688l-.001.001c-8.424 8.702-16.39 16.343-23.92 22.922l-.001.001c-7.542 6.57-14.136 11.81-19.842 15.686-2.846 1.952-5.313 3.387-7.389 4.285-2.038.882-3.836 1.308-5.292 1.06-2.348-.34-4.218-1.364-5.486-3.128-1.25-1.739-1.833-4.084-1.863-6.922-.059-5.584 1.116-12.241 3.506-19.951 2.386-7.699 5.605-16.017 9.652-24.953 4.018-8.92 8.056-17.318 12.092-25.173 4.03-7.844 7.601-14.546 10.755-20.077m-74.072-76.198l74.942 76.692m-74.942-76.692c3.903-.166 7.007.688 9.381 2.469 2.263 1.697 3.491 4.545 3.468 8.818-.011 1.949-.692 4.813-2.161 8.673m-10.688-19.96l10.688 19.96m63.384 56.238l.001-.002.869.496m-.87-.494v.001l.87.493m-.87-.494c3.112-5.495 5.093-8.885 5.914-10.079l.007-.01h0c1.255-1.78 2.16-4.107 2.637-6.997.474-2.873.36-5.577-.365-8.147m-7.323 25.727c3.122-5.514 5.078-8.857 5.869-10.007 1.36-1.93 2.31-4.408 2.806-7.41.495-3.002.38-5.855-.389-8.582m-.963.272l.001.002.962-.274m-.963.272a13.069 13.069 0 00-4.036-6.381c-1.857-1.628-4.668-2.452-8.591-2.286m12.627 8.667l.963-.272m0 0a14.076 14.076 0 00-4.34-6.861c-2.123-1.862-5.233-2.707-9.306-2.533m-58.894-21.339a643.077 643.077 0 01-4.552 11.576 1150.852 1150.852 0 00-6.776 14.209l-.23.492.288.461c.84 1.344 2.269 2.251 4.103 2.811 1.833.561 4.156.804 6.932.763 5.485-.058 11.766-.662 18.797-1.805 6.999-1.138 14.197-2.341 21.572-3.674m-40.134-24.833l58.894 21.339m-18.76 3.494h-.002l-.174-.984.178.984h-.002zm0 0c7.361-1.305 13.616-2.135 18.816-2.495m0 0l.013-.001-.069-.998m.056.999h-.013l-.043-.999" stroke="#fff" stroke-width="2"/><path d="M991.13 340.473v-.001c4.685-8.75 7.587-15.66 8.745-20.764.175-1.211.135-2.792-.132-4.781-.252-1.895-.928-3.753-2.013-5.598-1.066-1.778-2.668-3.33-4.867-4.621-2.15-1.261-4.871-2.029-8.248-2.24-.816-.006-2.26-.105-4.279-.288l-.011-.001h0c-1.845-.189-4.145.112-6.886.945-2.666.811-5.64 2.423-8.881 4.885-3.164 2.404-6.307 6.146-9.411 11.312-2.145 3.652-5.523 9.738-10.119 18.244l-.001.002c-4.607 8.489-9.442 18.157-14.548 28.983a540.097 540.097 0 00-14.574 33.915v.001c-4.621 11.778-7.906 22.612-9.885 32.527-1.976 9.902-2.154 18.195-.58 24.897v.004c.761 3.296 2.172 5.814 4.188 7.629 2.017 1.815 4.711 2.991 8.148 3.479 4.527.596 9.063.325 13.614-.775 4.609-1.115 8.867-2.574 12.799-4.374l.004-.002c3.955-1.789 7.448-3.685 10.526-5.684l.004-.002c3.117-2.003 5.345-3.478 6.678-4.434 9.136-6.921 18.759-14.841 28.892-23.805a916.393 916.393 0 0029.817-27.613 1089.24 1089.24 0 0028.09-28.216c8.97-9.374 16.87-17.858 23.7-25.476 6.83-7.622 12.39-14.007 16.68-19.112 2.14-2.552 3.81-4.612 5.02-6.172 1.21-1.562 1.91-2.564 2.17-3.054.7-1.574.65-2.641.21-3.437a6.418 6.418 0 00-2.52-2.404 7.459 7.459 0 00-3.59-.925c-1.35-.007-2.21.253-2.76.656l-.01.011-.02.011c-.07.048-.28.227-.69.605-.39.358-.9.854-1.54 1.489a365.108 365.108 0 00-5.37 5.443l-.71-.696.71.696c-4.6 4.744-10.4 10.723-17.43 17.957-7.03 7.242-14.99 15.218-23.88 23.907-8.9 8.687-17.92 17.354-27.1 25.933m-19.94-49.056l-40.238 93.555-.086.996c2.762.239 6.166-1.079 10.113-3.584l.01-.007.01-.006c6.664-4.456 14.392-10.406 23.182-17.842 8.786-7.432 17.769-15.451 26.949-24.056m-19.94-49.056c-4.703 8.806-9.889 18.176-15.579 28.133a688.41 688.41 0 00-16.347 30.375v.001m31.926-58.509l-31.926 58.509m51.866-9.453l-.68-.731.68.73v.001zm-51.866 9.453c-5.215 10.311-8.932 19.568-11.134 27.785l11.134-27.785zM1028 260.522v.001c-.48 3.38-1.59 6.753-3.31 10.144v.002c-1.72 3.414-3.77 6.322-6.13 8.756-2.38 2.443-4.87 4.293-7.46 5.571-2.62 1.28-5.3 2.012-8.08 2.183-2.76.17-5.306-.296-7.636-1.403-4.7-2.386-7.674-6.653-8.855-13.033v-.001c-1.182-6.34-.172-12.91 3.074-19.719 1.719-3.41 3.768-6.316 6.12-8.747 2.362-2.442 4.847-4.292 7.457-5.569 2.62-1.281 5.31-2.013 8.09-2.184 2.75-.17 5.27.293 7.62 1.398 2.36 1.283 4.31 3.072 5.86 5.382 1.56 2.331 2.61 4.91 3.16 7.791.55 2.883.57 6.037.09 9.428z" stroke="#fff" stroke-width="2"/></svg>