<svg width="70" height="41" fill="none" xmlns="http://www.w3.org/2000/svg"><path d="M9.675 6.607c-.58-.29-4.184 2.408-4.488 2.676-1.333 1.179-3.142 2.939-1.608 4.283 1.561 1.369 4.11 1.828 6.023 2.906 2.001 1.127.234 3.229-.697 4.458-2.34 3.094-4.376 6.391-6.115 9.623-.465.863-3.807 9.728-2.481 9.796-.78-.04 2.653-7.722 2.964-8.223 2.197-3.533 5.262-6.851 8.414-10.11 1.273-1.316 2.585-3.006 2.198-4.57-.397-1.604-2.958-2.435-5.104-3.176-2.833-.98-4.385-1.522-2.9-3.541.325-.441 4.073-3.982 3.794-4.122zM7.19 2.472c.08-.035.122-.195.166-.367.045-.173.092-.355.183-.434.246-.216.464-.298.694-.306.23-.009.472.055.763.13.308.08.567.222.833.358.266.136.54.27.878.333.33.06.623.06.915.043.293-.016.584-.046.908-.045.49.003 1.056.033 1.503.195.446.161.773.455.783.986.01.604-.383.835-.845 1.006-.462.172-.99.28-1.245.64-.022.03.602.492 1.26.965.657.473 1.349.958 1.461 1.035a9.663 9.663 0 004.229 1.594c.751.102 1.357.191 2.164.078.44-.06 1.246-.182 1.955-.67.315-.217.573-.483.77-.685.476-.487.67-.825.717-.807.056.022-.145.539-.508 1.045-.13.18-.403.562-.846.892-.808.601-1.768.722-2.559.82a9.864 9.864 0 01-2.716-.04c-1.181-.178-2.341-.396-4.714-1.747-1.466-.835-2.887-1.77-4.443-2.345-.644-.238-2.588-.903-4.245-1.746S2.222 1.536 2.721.585C3.286-.495 4.11.104 4.94.911c.827.807 1.662 1.819 2.25 1.561zm17.56 15.009c.222 0 .405.046.547.14.142.093.252.198.326.315a.948.948 0 01.139.372c.018.13.02.239.01.325-.05.235-.162.533-.336.893-.174.36-.375.757-.605 1.192-.23.434-.481.896-.754 1.385-.273.49-.533.972-.782 1.442-.248.472-.472.93-.67 1.376a7.59 7.59 0 00-.428 1.191c-.073.285-.065.444.028.475.093.03.263-.04.512-.215a9.7 9.7 0 001.376-1.125c.484-.465.964-.962 1.442-1.49.477-.527.936-1.06 1.376-1.6.44-.54.83-1.029 1.171-1.469.341-.44.624-.805.846-1.098.223-.29.354-.449.391-.474a.35.35 0 01.215-.056c.093 0 .18.023.26.066.08.043.142.103.186.176.043.074.04.168-.01.28-.037.074-.154.27-.353.586-.199.316-.465.71-.8 1.181-.335.472-.725.992-1.172 1.563-.446.57-.928 1.153-1.441 1.749a30.333 30.333 0 01-1.628 1.74c-.57.564-1.148 1.07-1.73 1.516-.1.062-.246.158-.438.288a4.53 4.53 0 01-.679.371c-.26.119-.54.21-.837.28a2.45 2.45 0 01-.874.046.913.913 0 01-.53-.26 1.108 1.108 0 01-.27-.54 2.547 2.547 0 01-.038-.773c.025-.29.075-.605.149-.939a7.739 7.739 0 01-1.005.866c-.396.292-.81.552-1.236.782-.43.23-.844.421-1.247.577-.404.156-.747.24-1.033.25-.446.013-.83-.05-1.153-.186a2.167 2.167 0 01-.79-.548 2.159 2.159 0 01-.447-.772 2.74 2.74 0 01-.14-.856c0-.396.063-.853.187-1.368a9.7 9.7 0 01.548-1.6c.242-.55.546-1.098.912-1.637a9.092 9.092 0 011.284-1.507 8.217 8.217 0 011.646-1.21 6.516 6.516 0 012.029-.716 4.29 4.29 0 011.227-.074c.36.038.672.121.94.25.266.131.486.301.66.513.174.211.303.434.391.669.149-.285.282-.533.4-.745a9.05 9.05 0 01.289-.484c.197-.346.403-.598.613-.754.21-.154.407-.26.586-.316a1.22 1.22 0 01.465-.065c.135.015.225.022.274.022zm-8.466 9.805c.21-.012.48-.096.81-.25a5.872 5.872 0 001.022-.633 8.478 8.478 0 001.033-.931c.335-.353.62-.735.855-1.144.187-.471.387-.949.606-1.433.217-.484.431-.949.641-1.395.075-.372.08-.664.018-.874a1.079 1.079 0 00-.27-.485.826.826 0 00-.4-.214 1.868 1.868 0 00-.354-.046c-.223-.012-.49.084-.8.288-.31.205-.639.482-.986.828a14.325 14.325 0 00-1.991 2.567c-.286.472-.528.934-.726 1.386-.199.452-.32.853-.363 1.2-.043.348 0 .626.131.837.132.212.39.312.774.3z" fill="#ED165F"/><path d="M33.4 13.034a.82.82 0 01.513.121.93.93 0 01.326.364.943.943 0 01.093.492c-.013.18-.063.344-.15.493a73.72 73.72 0 00-1.73 2.948 85.969 85.969 0 00-1.878 3.563c.706.1 1.435.174 2.185.223.75.05 1.452.043 2.103-.018.651-.061 1.219-.195 1.703-.4.484-.204.818-.512 1.005-.92.11-.236.25-.391.418-.465.167-.074.319-.084.457-.028a.576.576 0 01.307.307c.068.15.066.323-.01.52a3.27 3.27 0 01-.967 1.331c-.421.34-.896.608-1.423.8a7.008 7.008 0 01-1.693.381 13.25 13.25 0 01-1.787.066 16.41 16.41 0 01-1.665-.131c-.52-.068-.974-.14-1.358-.214-.1.211-.195.418-.288.623l-.288.623c.123.472.257 1.03.4 1.674.142.646.258 1.353.344 2.12.086.77.136 1.583.149 2.438.012.856-.043 1.731-.167 2.623-.187 1.29-.434 2.385-.745 3.284-.31.899-.65 1.638-1.022 2.214-.372.576-.757 1.022-1.154 1.34-.396.315-.775.545-1.135.688a3.293 3.293 0 01-1.656.233 2.594 2.594 0 01-1.302-.576 3.363 3.363 0 01-.893-1.191 5.185 5.185 0 01-.43-1.656 7.19 7.19 0 01.094-1.972c.149-.805.384-1.702.707-2.688.323-.986.704-2.019 1.144-3.097.44-1.08.915-2.174 1.423-3.284.508-1.11 1.023-2.186 1.545-3.228-.434-.484-.807-.738-1.116-.763-.198-.012-.286-.102-.26-.27.024-.166.11-.35.26-.548a3.13 3.13 0 01.53-.548c.204-.167.381-.25.53-.25.025 0 .14.025.344.073.204.05.467.106.79.167.371-.731.729-1.416 1.07-2.055a164.608 164.608 0 011.61-2.95l.371-.669c.162-.297.366-.555.614-.772.248-.217.505-.397.772-.54a4.81 4.81 0 011.31-.476zm-4.484 19.164c.124-1.229.119-2.375-.018-3.442a15.658 15.658 0 00-.633-2.903c-.484 1.08-.946 2.146-1.386 3.2a61.007 61.007 0 00-1.171 3.014c-.341.955-.626 1.84-.856 2.652-.23.813-.384 1.52-.465 2.12-.08.602-.073 1.08.018 1.433.094.353.295.548.606.585.681.075 1.24-.086 1.674-.482.434-.397.79-.928 1.07-1.59.28-.664.505-1.402.678-2.215.173-.812.334-1.604.483-2.372z" fill="#ED165F"/><path d="M46.051 17.481c.223 0 .407.046.549.14.142.093.252.198.325.315a.948.948 0 01.14.372c.018.13.02.239.01.325-.05.235-.162.533-.336.893-.174.36-.376.757-.605 1.192-.23.434-.482.896-.755 1.385-.272.49-.532.972-.782 1.442-.247.472-.471.93-.669 1.376a7.45 7.45 0 00-.428 1.191c-.074.285-.066.444.028.475.093.03.263-.04.511-.215.435-.285.894-.66 1.377-1.125.484-.465.964-.962 1.441-1.49.477-.527.937-1.06 1.376-1.6.44-.54.83-1.029 1.172-1.469.34-.44.623-.805.846-1.098.222-.29.353-.449.39-.474a.35.35 0 01.215-.056c.093 0 .18.023.26.066.08.043.142.103.187.176.043.074.04.168-.01.28-.038.074-.154.27-.353.586-.2.316-.465.71-.8 1.181-.336.472-.726.992-1.172 1.563-.447.57-.928 1.153-1.442 1.749a30.298 30.298 0 01-1.628 1.74c-.57.564-1.148 1.07-1.73 1.516-.1.062-.245.158-.437.288-.192.13-.42.254-.68.371-.26.119-.54.21-.837.28a2.45 2.45 0 01-.874.046.913.913 0 01-.53-.26 1.108 1.108 0 01-.27-.54 2.544 2.544 0 01-.037-.773c.025-.29.075-.605.148-.939a7.739 7.739 0 01-1.004.866c-.397.292-.81.552-1.237.782-.429.23-.843.421-1.247.577-.403.156-.747.24-1.032.25-.447.013-.83-.05-1.154-.186a2.166 2.166 0 01-.79-.548 2.159 2.159 0 01-.447-.772 2.74 2.74 0 01-.139-.856c0-.396.063-.853.187-1.368a9.7 9.7 0 01.548-1.6c.242-.55.545-1.098.911-1.637a9.097 9.097 0 011.285-1.507 8.222 8.222 0 011.646-1.21 6.517 6.517 0 012.028-.716 4.29 4.29 0 011.227-.074c.36.038.672.121.94.25.267.131.487.301.66.513.175.211.304.434.392.669.148-.285.282-.533.4-.745.118-.21.214-.371.288-.484.198-.346.404-.598.614-.754.21-.154.406-.26.586-.316.18-.055.335-.078.464-.065.135.015.226.022.274.022zm-8.465 9.805c.21-.012.48-.096.81-.25a5.84 5.84 0 001.023-.633 8.47 8.47 0 001.032-.931c.335-.353.62-.735.856-1.144.186-.471.387-.949.605-1.433a75.3 75.3 0 01.642-1.395c.075-.372.08-.664.018-.874a1.078 1.078 0 00-.27-.485.826.826 0 00-.401-.214 1.868 1.868 0 00-.354-.046c-.222-.012-.49.084-.8.288-.31.205-.638.482-.986.828a14.343 14.343 0 00-1.991 2.567c-.285.472-.528.934-.725 1.386-.2.452-.32.853-.363 1.2-.043.348 0 .626.13.837.133.212.39.312.774.3z" fill="#ED165F"/><path d="M50.796 16.123c.26-.012.475.043.642.167.167.124.25.329.25.614 0 .136-.046.328-.14.577-.092.248-.188.497-.287.745-.136.285-.28.588-.429.911.087.136.304.202.651.195a8.058 8.058 0 001.192-.121c.446-.075.905-.155 1.376-.242a11.75 11.75 0 011.209-.167c.26-.013.459.04.595.158.137.118.23.265.28.437.05.174.059.356.028.548a1.12 1.12 0 01-.177.475c-.05.074-.174.288-.371.641a34.34 34.34 0 00-.68 1.285 34.76 34.76 0 00-.762 1.61c-.255.57-.456 1.1-.605 1.59-.149.49-.22.908-.214 1.256.005.348.146.54.418.578.15.025.404-.087.763-.336.36-.247.778-.583 1.256-1.004.478-.422.983-.912 1.517-1.47a45.077 45.077 0 001.554-1.711c.502-.583.962-1.16 1.376-1.73.416-.571.742-1.086.977-1.545a.49.49 0 01.288-.252.658.658 0 01.391-.01c.13.036.235.118.316.242.08.124.103.298.065.52-.012.063-.114.251-.307.568-.192.316-.45.71-.772 1.181-.323.472-.707.995-1.154 1.573a34.815 34.815 0 01-1.441 1.74 24.29 24.29 0 01-1.628 1.673c-.57.533-1.148.99-1.731 1.368a7.126 7.126 0 01-1.74.837c-.577.18-1.132.208-1.665.084-.51-.124-.896-.329-1.163-.614a2.01 2.01 0 01-.512-1.023 3.856 3.856 0 010-1.302c.074-.471.189-.942.343-1.413.155-.472.338-.934.549-1.386a20.537 20.537 0 011.125-2.103 7.85 7.85 0 01.27-.419c.137-.174.152-.303.046-.39-.106-.087-.245-.1-.419-.038a3.687 3.687 0 01-.772.186c-.328.05-.658.03-.986-.055a1.714 1.714 0 01-.866-.558c-.248-.286-.378-.725-.39-1.32a2.445 2.445 0 01.083-.708c.068-.285.176-.56.325-.828.15-.267.331-.499.548-.697a1.21 1.21 0 01.778-.317z" fill="#ED165F"/><path d="M62.796 18.913c.224.012.409.063.558.149.148.086.26.192.335.316.074.123.121.25.14.38.017.132.021.24.009.326-.074.336-.26.785-.558 1.349a72.26 72.26 0 01-.987 1.804c-.36.64-.704 1.288-1.032 1.944-.328.658-.56 1.247-.697 1.767-.075.286-.035.434.12.447.155.012.357-.063.606-.223.422-.285.912-.666 1.47-1.143a45.394 45.394 0 001.71-1.545 100.882 100.882 0 003.239-3.2l1.107-1.154c.291-.303.457-.467.493-.492a.35.35 0 01.214-.056c.093 0 .18.023.26.066a.481.481 0 01.187.176c.043.075.04.167-.01.28-.038.074-.192.277-.465.605a51.84 51.84 0 01-1.06 1.229 68.563 68.563 0 01-3.293 3.452c-.621.608-1.254 1.2-1.898 1.777A31.67 31.67 0 0161.4 28.7c-.086.063-.23.16-.428.288a5.113 5.113 0 01-.68.372c-.254.118-.53.214-.827.288a2.422 2.422 0 01-.893.056c-.46-.063-.742-.313-.846-.754-.106-.44-.096-.98.028-1.619a12.3 12.3 0 01.623-2.092 37.068 37.068 0 011.842-4.037c.291-.545.505-.936.642-1.171.199-.336.403-.583.613-.745.21-.161.407-.27.586-.325a1.22 1.22 0 01.465-.066c.13.011.221.017.27.017zm.242-3.125c.111-.224.245-.416.4-.578a1.78 1.78 0 01.492-.371 1.43 1.43 0 01.54-.149 1.05 1.05 0 01.52.093c.161.087.295.208.4.363.106.156.177.329.215.52.037.193.04.401.01.624a2.145 2.145 0 01-.215.67 2.322 2.322 0 01-.399.577 1.82 1.82 0 01-.493.371 1.419 1.419 0 01-.54.15 1.04 1.04 0 01-.52-.094c-.323-.161-.524-.452-.605-.875-.08-.42-.015-.854.195-1.301z" fill="#ED165F"/></svg>