<svg xmlns="http://www.w3.org/2000/svg" width="120" height="121"><path fill-rule="evenodd" fill="#FFB534" d="M119.858 64.67a.588.588 0 01-.585.55l-.04-.001a.589.589 0 01-.546-.63 60.774 60.774 0 00.022-7.848.59.59 0 01.549-.627c.332.796.603.228.623.554a62.523 62.523 0 01-.023 8.002zm-.882-11.499a.588.588 0 01-.659-.509 59.941 59.941 0 00-.67-4.042.59.59 0 01.458-.698c.321-.065.627.718.691.462.914 1.36.505 2.747.685 4.123a.59.59 0 01-.505.664zm-1.555-7.711c-.052.15-.105.23-.157.23.336 0-.494-.794-.565-1.056-.359-1.309-.77-2.534-1.22-3.909-.108-.309.052.055.358-.756.306-.108.64.251.748.361.865 1.311.879 2.653 1.245 3.989.087.315-.097.64-.409 1.141zm-.09 30.817c.312.088.493.415.404 1.423-.375.646-.802 1.985-1.268 3.289a.587.587 0 01-.751.356.593.593 0 01-.353-.757 59.41 59.41 0 001.243-3.903c.088-.315.594-.496.725-.408zm-2.565-39.055a.584.584 0 01-.233.049c-.227 0 .367-.133-.539-.356a59.5 59.5 0 00-1.744-3.699.594.594 0 01.251-.797.584.584 0 01.791.253c.636 1.236 1.234 2.505 2.418 3.772-.51.3-.08 1.486-.944.778zm-.14 47.728c.297-.723.944-.374.3-.075a61.044 61.044 0 01-1.805 3.769c.039.201-.309.317-.52.317a.585.585 0 01-.273-.069c.082-.152-.397-.51.492.038-.107-2.046.489-3.289 1.032-4.532.131.592.478-.434.774.552zm-3.006-55.105c-.653.059-.759.087-.863.087a.584.584 0 01-.501-.284c-.702-1.159-1.454-2.31-2.046-3.422-.377-.267-.315-.636-.05-.825a.584.584 0 01.818.14c.797 1.134 1.564 2.308 2.279 3.779.17-.009.082.355.363.525zm-4.505 35.374c.865 0 .695-.001.525-.002-.899-.028-1.139-.315-1.111-.64a48.213 48.213 0 00.15-5.591.59.59 0 01.567-.611.578.578 0 01.606.573 49.558 49.558 0 01-.153 5.73.589.589 0 01-.584.541zm.185-9.792c.4.003-.316.004-.339.004a.588.588 0 01-.582-.522c-.159-1.353-.279-2.71-.651-4.034a.588.588 0 111.15-.241c.279 1.358.504 2.749.666 4.136.038 1.18-.192.619-.244.657zm-1.17-32.244c-.287 0-.456-.073-.572-.216a59.839 59.839 0 00-2.681-3.083c-.222-.238-.21-.613.026-.404.236-.656.608-.644.829.26.941 1.09 1.861 1.4 2.735 2.477.205.253.168.626-.083 1.273-.109-.35-.24-.307-.254-.307zm-5.739-6.031a.58.58 0 01-.399-.158c-.992-.324-2.027-1.83-3.075-2.683a.595.595 0 01-.089-.832c.492-.255.574-.295.826-.09a61.058 61.058 0 013.136 2.738c.49.222.63.597.032.836-.116.917-.273.189-.431.189zm-2.099 15.349c-.106.079.338.117-.351.117a.588.588 0 01-.471-.238 47.04 47.04 0 00-2.561-3.17.596.596 0 01.049-.836.582.582 0 01.828.049 48.162 48.162 0 012.625 3.25.595.595 0 01-.119.828zm-2.628 22.627a.591.591 0 01-.494.672c-.03.004-.058.006.66.006-1.034 0-1.284-.211-1.327-.505-.197-1.338-.203-2.678-.822-3.984-.084-.217.102-.641 1.279-.726-.552-.086-.229.102-.145 1.209.36.559.646 1.945.849 3.328zM94 11.953a.579.579 0 01-.336-.108c-1.104-.175-2.252-1.53-3.412-2.232-.278-.168-.368.197.258-.812-.292-.28.068-.372.346-.202 1.544.716 2.355 2.221 3.481 2.277.266.754.331.557.145.824a.588.588 0 01-.482.253zm-1.084 14.298a.588.588 0 01-.427.185c-.145 0-.29-.054.371-.162-1.752-.933-2.09-1.835-3.64-2.68-.452-.203-.495-.404-.293-.832a.585.585 0 01.825-.095 48.795 48.795 0 013.141 2.747c.236.224.246.726.023.837zM86.96 7.688a.577.577 0 01-.266-.065C85.492 7.4 84.252 6.42 83.7 5.886c-.991-.129-1.13-.476-1.003-.777a.584.584 0 01.769-.312c1.271.544 2.734 1.141 3.762 1.772.288.149.403 1.171.255.796a.585.585 0 01-.523.323zm-.573 12.516c.271.181.345.549.166 1.046-.113-.053-.3.04.077.04-.678 0-.79-.032-.89-.098-1.123-.75-2.293-1.46-3.477-1.352-.284-.912-.39-1.271.017-1.558-.097-.287.259-.394.544.168 1.546.26 2.412.986 3.563 1.754zM84.42 34.192c-.494.131-.655.198-.816.198a.585.585 0 01-.391-.151c-1.002-.902-2.066-1.754-2.713-2.532-.714-.188-.778-.557-.591-.824 1.041-.267.552-.332.818-.143a36.734 36.734 0 013.268 2.616c.242.218.263.592.425.836zM79.399 4.444a.582.582 0 01-.191-.033 58.195 58.195 0 00-3.887-1.202c.479-.085-.498-.41-.414-.725.084-.317.41-.503.719.176 1.331-.233 2.665.18 3.965.633.306.107 1.009.443.363 1.157-.084-.16-.311-.006-.555-.006zm-4.195 10.257c1.311.442 2.617.948 4.656 1.503-.477.131-.34.48-.47.78-.096.222.39.355-.539.355a.567.567 0 01-.233-.049 46.068 46.068 0 00-3.787-1.467c-.307-.104-.473-.439-.37-.083.103-.976.437-1.142.743-1.039zm2.212 14.622a.589.589 0 01-.797.237 34.828 34.828 0 00-3.654-1.732c-.301-.122-.447-.467-.326-.248.119-.826.461-.972.763-.851a36.093 36.093 0 013.778 1.791c.285.156.39.83.236.803zm-5.941-27.03a.638.638 0 01-.114-.011c-.991-.082-2.675-.48-4.014-.648-.097-.041-.55-.336-.51-.66a.588.588 0 01.655-.515c1.365.172 2.743.395 4.095.661.318.063.526.374.913.694-.505 1.156-.75.479-1.025.479zm-.268 11.252c.316.076.51.396.434.713-.064.271-.305.453.069.453-.45 0-.731-.004-.777-.016a46.519 46.519 0 00-3.979-.779.591.591 0 01-.494-.673.588.588 0 01.667-.498c1.367.206 2.74.475 4.08.8zM69.855 26.12a.587.587 0 01-.72.415 34.616 34.616 0 00-3.951-.833c-.321-.048-.542-.35-.494-.412.048-.584.68-.806.667-.759 1.374.207 2.748.749 4.085.862a.593.593 0 01.413.727zM63.33 1.268l-.033-.001a59.271 59.271 0 00-4.065-.087h-.007a.59.59 0 01-.587-.585c-.004-.327.255-.595.579-.295 1.378-.09 2.774.5 4.145.55.324-.747.572-.468.554-.141-.018.531-.277.559-.586.559zm-.337 11.038a.59.59 0 01.55.627.588.588 0 01-.585.555l-.037-.001a48.111 48.111 0 00-4.054-.078.597.597 0 01-.601-.577.59.59 0 01.573-.606 48.4 48.4 0 014.154.08zm-1.791 11.846a.59.59 0 01.567.611c-.01 1.137-.28.585-.606.571-.394-.013-.77-.007-1.185-.019-.688 0-1.278.039-2.852.116-.016.002.814.002.654.002-1.005 0-1.262-.234-1.287-.543-.026-.326.214-.612.817-.638 1.29-.08 1.688-.121 2.668-.121.424-.009.818.006 1.224.021zM55.169 1.37a59.109 59.109 0 00-4.038.472c-.029.004.589.007.299.007-.672 0-.923-.21-.967-.504-.048-.125.173-.624.493-.673A46.894 46.894 0 0155.74.191c-.342-.025-.059.216-.033.542.026.857-.215.612-.538.637zm-.476 11.134c.437-.036.612.199.647.766.036.083-.197.375-.519.41-1.339.149-2.688.71-4.008.624a.59.59 0 01-.69-.465c.477-.321.143-.633.461-.696a47.855 47.855 0 014.109-.639zm-1.104 12.795a.592.592 0 01-.461.696c-1.316.264-2.63.61-3.906 1.215-.06.2-.121.3.188.3-.616 0-.847-.619-.927-.869a.592.592 0 01.377-.745 35.803 35.803 0 014.039-1.062.59.59 0 01.69.465zM47.135 2.594c-1.317.296-2.64.643-3.935 1.03-.056.017.68.025.13.025s-.783-.167-.86-.424a.592.592 0 01.396-.735c1.32.45 2.671-.749 4.014-1.051a.592.592 0 01.255 1.155zm-.588 11.546c.314.33.637.089.728.403a.592.592 0 01-.399.733c-1.291.379-2.583 1.704-3.506 1.316-.403.028-.475.041-.546.041a.587.587 0 01-.547-.377.595.595 0 01.334-.767 47.682 47.682 0 013.936-1.349zm-.797 13.575c.135.395.006.648-.289.784-1.217 1.121-2.021 1.205-3.564 1.908a.583.583 0 01-.304.085c-.199 0-.392-.1.317-.284-.988-.279-.81-.644-.623-.813 1.187-.726 2.426-.795 3.685-1.972a.586.586 0 01.778.292zM39.346 4.928c-.506.476-2.524 1.004-3.75 1.569a.588.588 0 01-.778-.293.594.594 0 01.29-.784 59.987 59.987 0 013.826-1.601.586.586 0 01.756.347.594.594 0 01-.344.762zm-.67 26.958a.595.595 0 01-.102.83 35.088 35.088 0 00-3.038 2.682.585.585 0 01-.83-.008.595.595 0 01.007-.837c.99-.98 2.047-1.912 3.14-2.77a.583.583 0 01.823.103zm-2.33 54.478a.596.596 0 01.034.836.583.583 0 01-.83.034 36.32 36.32 0 01-2.9-3.025.595.595 0 01.062-.834.583.583 0 01.828.063 35.542 35.542 0 002.806 2.926zm-5.874-44.641a.584.584 0 01-.81.185c-.274-.175-.356-.54-.183.002.742-2.001 1.911-3.152 2.43-4.24a.584.584 0 01.826-.088c.252.204.535.577.088.832a35.367 35.367 0 00-2.351 3.309zM29.239 25.37c-.112-.235-.249-.187-.387-.187a.588.588 0 01-.442-.202.596.596 0 01.056-.835 48.278 48.278 0 013.243-2.621.585.585 0 01.821.127.596.596 0 01-.127.827c-1.087.804-2.151 1.664-3.164 2.891zm2.722-17.046a58.506 58.506 0 00-3.502 2.078.588.588 0 01-.81-.182.593.593 0 01.18-.817 59.99 59.99 0 013.572-2.119c.287-.156 1.019-.049.796.238a.594.594 0 01-.236.802zM28.24 44.495a.594.594 0 01.275.79 21.39 21.39 0 00-1.533 4.235c-.084-.223-.311-.068-.555-.068a.594.594 0 01-.555-.785c.45-1.32.983-2.297 1.585-3.894a.584.584 0 01.783-.278zm-4.617-13.567c-.117.802-.286.22-.458.22.195 0-.259-.044-.368.012-.252-.349-.292-.722-.088-.976.867-1.082 1.791-1.734 2.748-2.784.226-.596 1.083-.603.83-.17.234.019.241.394.017.63a47.004 47.004 0 00-2.681 3.068zM21.92 15.263a.582.582 0 01-.38.141c-.167 0-.332-.072.39-.209-1.048-.249-1.017-.623-.77-.834a60.735 60.735 0 013.25-2.595c.261-.194.97-.138.821.125a.595.595 0 01-.124.827c-.887.807-2.158 1.663-3.187 2.545zm-.707 18.954c-.753 1.129-1.466 2.302-1.253 3.488-.972.195-1.172.395-1.379.395-.096 0-.193-.113-.283-.164-.158-.158-.387-.518.392-.804.047-1.216.777-2.419 1.55-3.576.18-.27.545-.342 1.3-.16-.217.183-.146.55-.327.821zM16.1 20.984a.588.588 0 01-.438.198c-.139 0-.279-.05-.391.128.019-.497.629-.871-.047-1.115.916-1.033 1.882-2.049 3.706-3.02-.605-.228-.234-.224-.007.01.226.234.221.609-.011 1.035-.968.754-1.914 1.75-2.812 2.764zm.889 19.601c.296.133.429 1.085.298.781a47.21 47.21 0 00-1.487 3.806.587.587 0 01-.554.4c-.063 0-.128-.011.304-.033-.802-.106-.965.421-.859-.752.448-1.315.96-2.628 1.523-3.902a.586.586 0 01.775-.3zm-2.338 9.325c-.324.499-.091 1.847-.806 4.06-.045-.581-.295-.373-.579-.373a.59.59 0 01-.58-.684c.215-1.375.493-2.757.826-4.107a.585.585 0 01.711-.432c.315.079.506.4.428 1.536zm-3.539-22.452a.584.584 0 01-.814.161c-.008-.182-.34.071-.16-.821a60.573 60.573 0 012.431-3.39.585.585 0 01.824-.104.596.596 0 01.103.831 59.74 59.74 0 00-2.384 3.323zm-.208 65.756a59.93 59.93 0 002.362 3.336.596.596 0 01-.109.83c.343.082-.232.122-.357.122a.585.585 0 01-.466-.232c-.835-1.097-1.645-1.99-2.407-3.402-.18-.272-.106-.64.983-.388-.549-.614-.185-.538-.006-.266zM7.55 34.564c-.597.211-.806.333-1.024.333a.589.589 0 01-.256-.06c-.291-.143-.412-.497-.271-.377.603-1.662 1.258-2.906 1.945-4.111.162.321.52-.38.802-.217.524.163.378.524.215.808-.674 1.181-1.315 2.4-1.411 3.624zM6.898 86.93c.583.389 1.216 1.611 1.882 2.793.16.977.06.645-.222.807a.579.579 0 01-.288.077c.38 0-.403-.108-.512-.301.042-1.205-1.324-2.45-1.918-3.701a.594.594 0 01.275-.79c.293-.143.643-.016.783 1.115zM4.11 42.171c-.179.251-.409.41-.657.41a.594.594 0 01-.558-.775 62 62 0 011.418-3.935c.121-.303.464-.448 1.457-.327-.393.122-.247.556-.368.77-.507 1.266-.974 2.565-1.292 3.857zm-1.218 3.941c-.326 1.319-.61 2.669-.422 4.009-.473.287-.72.489-1 .489a.519.519 0 01-.103-.009c.113-.057-.532-.363-.475-.686a61.7 61.7 0 01.86-4.089.585.585 0 01.712-.431c.315.079.506.4.428.717zM1.48 54.18a61.01 61.01 0 00-.288 4.089.589.589 0 01-.586.569H.584c-.324-.012.116-.287-.394-.613.51-1.391-.021-2.794.123-3.675.034-.82.326-1.054.645-1.021a.589.589 0 01.522.651zm-.905 7.616c.326-.014.594.614.605.573.041 1.359.13 2.734.265 4.09.032.325-.203 1.281-.526.648l-.059.002a.588.588 0 01-.583-.533C.14 65.194.48 63.791.6 62.405c-.3.375-.349-.6-.025-.609zm.736 8.564c.32-.378.622-.161.677.16.227 1.345.503 2.695.821 4.015a.592.592 0 01-.571.731c-.264 0-.504.584-.57-.452-.324-1.346-.048-1.904-.837-4.094-.055-.323.16.2.48-.36zm1.857 8.61c.31-.972.639-.8.737-.489.41 1.3.87 3.309 1.366 3.861a.594.594 0 01-.545.81c-.234 0-.455-.042-.546-.374a61.046 61.046 0 01-1.393-3.938c-.099-.311.072-.645.381.13zm9.534-17.122h-.009a.59.59 0 01-.587-.583c-.004.635-.006-.514-.006-.771 0-1.136.039-2.286.118-2.724.023-1.019.3-1.263.626-1.242a.59.59 0 01.544.631 48.787 48.787 0 00-.108 4.087c.005.327-.02.596-.578.602zm.247 7.746a49.376 49.376 0 01-.6-4.146.59.59 0 01.524-.649c.315-.037.611.401.644.528.138 1.355.335 3.103.586 4.046.06.32-.149.927-.467 1.267-.037.07-.074.1-.111.1-.276 0-.225-.863-.576-1.146zm1.362 3.348c.307-.086.636.418 1.039.408.052 1.306.481 2.612.959 3.881a.591.591 0 01-.339.763c-.069.216-.14.346-.209.346-.237 0-.46-.452-.549-.689-.49-1.301-.93-2.541-1.306-3.978-.088-.315.093-.363.405-.731zm1.537 26.773a59.525 59.525 0 002.794 2.98.595.595 0 01-.413 1.013c.571 0-.298-.058-.413-.171a61.428 61.428 0 01-2.848-3.039c-.215-.244-.192-.619.232-.835.062-.216.433-.194.648.052zm1.283-19.006a.585.585 0 01.784.274 47.51 47.51 0 001.923 3.598c.562.281.075.644-.204.811a.586.586 0 01-.804-.205 48.439 48.439 0 01-1.972-3.688.594.594 0 01.273-.79zm4.501 24.765c1.021.887 2.089 1.75 3.173 2.926.845-.164.313.207.119.468-.116.372-.292.238-.471.238-.122 0-.245.584-.351-.118a59.923 59.923 0 01-3.236-2.617.596.596 0 01-.062-.835c.346-.248.583-.275.828-.062zm3.814-53.204a.591.591 0 01.449.703 35.193 35.193 0 00-.629 4.02.59.59 0 01-.642.531c-.322-.032.036-.321.356-.647-.746-1.395-.527-2.037-.233-4.155a.587.587 0 01.699-.452zm-.933 40.16c-.111-.291-.247-.244-.383-.244a.58.58 0 01-.445-.206 48.67 48.67 0 01-2.574-3.29c-.189-.265-.13-.14.133-.826.263-.191.63-.131 1.396.134.212 1.103 1.057 2.183 1.935 3.211.211.248.184.621-.062 1.221zm-.009-31.951h.009c.321 0 1.437.258.587 1.131.021.805.119 2.171.294 3.509a.592.592 0 01-.505.665c-.026.002-.052.004-.077.004a.588.588 0 01-.581-.514c.269-1.384-.283-2.795-.305-3.484-.005-1.038.254-1.306.578-1.311zm.934 8.209c.316-.08 1.282.112.713.429a35.42 35.42 0 001.214 3.882c.115.305-.037.647-.115.763-.294.026-.364.039-.434.039a.586.586 0 01-.548-.382c-.493-1.304-.914-2.654-1.138-4.013-.196.494-.006-.638.308-.718zm1.914 25.501c.962.948 1.978 2.361 3.021 2.728.251.208.287.58.082.833a.585.585 0 01-.827.082c-1.069-.884-2.11-1.132-3.097-2.472-.231-.553-.236-.928-.009-1.161a.584.584 0 01.83-.01zm2.762-13.319a36.56 36.56 0 01-2.137-3.612.594.594 0 01.249-.798c.289-.15.643-.037.954.252.456 1.196 1.152 3.128 2.68 3.494-.592.27-.662.639-.931 1.074-.101.69-.215-.15-.329-.15-.188 0-.373.26-.486-.26zm-1.968 29.511a58.669 58.669 0 003.494 2.102c.283.158.63.617.231.805a.589.589 0 01-.515.306c-.096 0-.193-.025.374-.074-1.863-.67-3.062-1.391-4.22-2.145a.596.596 0 01-.176-.818.584.584 0 01.812-.176zm5.471-11.009c1.112.768 2.27 1.496 3.973 2.164-.248.16-.148 1.034-.308.805a.584.584 0 01-.799.225c-1.202-.685-1.553-1.43-3.53-2.217a.596.596 0 01-.152-.823.585.585 0 01.816-.154zm1.652 14.965a37.152 37.152 0 003.931 1.596c.122.557.274.458.159.764-.089.236.111 1.083-.548 1.083-.07 0-.141-.13-.21-.4a19.443 19.443 0 00-3.826-1.969.593.593 0 01-.285-.786.585.585 0 01.779-.288zm.506-94.129a.588.588 0 01-.305.086c-.198 0 .31-.102-.502.606-.169-1.17-.08-1.534.197-1.704a47.704 47.704 0 013.643-2.017c1.162.161.643-.025.786.269.143.292.024 1.502-.266.792a46.05 46.05 0 00-3.553 1.968zm8.085 71.748c-.881.192-1.081.301-1.285.301a.579.579 0 01-.288-.077c-.477-.687-2.387-1.453-3.511-2.277-.262-.192-.32-.562-.129-.133.192-.958.558-1.016.82-.824a35.175 35.175 0 003.396 2.203c.283.162.383.522.997.807zm-3.184 11.433a46.56 46.56 0 003.762 1.528c.306.343.466.446.359.754-.086.244-.312.999-.554.999-.065 0-.131-.11.237-.34-1.734-.76-3.032-.91-4.29-1.864a.593.593 0 01-.292-.783c.422-.297.48-.431.778-.294zm2.196 13.872c1.29.395 2.613.839 3.93 1.054.316.072.513.39.441.915-.062.067-.304.253-.572.253a.6.6 0 01-.132-.015 58.69 58.69 0 01-4.007-1.075c-.311-.094-.072-.425-.392-.737a.586.586 0 01.732-.395zm7.264-21.805c.694 0 .144-.007-.162-.023-1.333.017-2.658-.859-3.604-1.113-.632-.415-.772-.761-.647-1.063a.585.585 0 01.769-.316c1.237.524 2.608.98 3.807 1.354.312.092.491.419.401.985-.073.008-.308.176-.564.176zm-1.818 10.652c1.301.337 2.635.621 3.967.844.319.548.536.358.482.68a.587.587 0 01-.578.495c-.031 0-.064-.003.731-.009-2.193-.227-3.561-.518-4.67-.864-.539-.082-.728-.405-.647-.721.081-.317.497-.263.715-.425zm2.475 13.792c1.334-.599 2.691-.433 4.036-.315a.59.59 0 01.534.64c-.027.309.437.541-.584.541-.018 0-.034 0-.052-.002a60.582 60.582 0 01-4.116-.504c-.32-.051.109-.354-.489-.677.051-.322.349-.203.671.317zm7.4-23.091c-1.389-.069-2.785-.22-3.753-.448-.715-.053-.932-.061-.878-.681a.582.582 0 01.675-.486c1.319.221 2.67.366 4.013.432a.591.591 0 01.558.621.59.59 0 01-.586.563l-.029-.001zm-1.883 10.636c1.215.096 2.452.144 3.678.144l.374-.002h.004a.59.59 0 01.587.588.59.59 0 01-.583.596l-.381.002c-1.257 0-2.525-.05-3.771-.148a.589.589 0 01-.539-.635.58.58 0 01.631-.545zm2.579 12.354c1.349.026 2.719.004 4.067-.063a.584.584 0 01.616.562c.016.326-.234.603-.422.62a67.14 67.14 0 01-4.282.065.589.589 0 01-.576-.602c.006.159.265-.576.597-.582zm3.476-23.023a.508.508 0 01-.039.001c-.136 0-.565-.24-.585-.553a.59.59 0 01.547-.629c1.343-.089 2.691-.256 4.007.375.32-.57.625-.719.683-.397.382.321-.154.63-.472.688-1.36.251-2.754.423-4.141.515zm2.047 10.605c1.344-.128 2.696.269 4.017-.559.32-.056 1.101.155.682.476a.592.592 0 01-.471.689 48.075 48.075 0 01-4.118.572l-.056.002c-.299 0-.555-.229-.584-.311-.03-.55 1.008-.838.53-.869zm3.288 12.012c.65-.161 2.002-.173 3.55-.625.097-.062.401.151.461.472a.59.59 0 01-.467.691c-1.35.258-2.729.472-4.098.637-.023.003.844.004.614.004-.977 0-1.231-.221-1.266-.072-.039-.775.192-1.069 1.206-1.107zm2.861-24.127a.585.585 0 01-.733-.393.593.593 0 01.389-.739 46.294 46.294 0 003.883-1.416c.2-.132.544.005.675.502.13.101-.005.45-.302.582a36.141 36.141 0 01-3.912 1.464zm1.821 10.648a46.08 46.08 0 003.86-1.254c.302-.112.642.043.754 1.24.113-.584-.042-.244-.346-.13-1.293.484-2.4.916-3.957 1.78-.052.15-.104.22-.156.22-.257 0-.107-.867-.565-1.129-.086-.315.728-.641.41-.727zm2.608 11.951a58.487 58.487 0 003.893-1.18c.309-.104.641.061.745.865.104-.185-.061.151-.367.256-1.306.446-2.642.85-3.973 2.094-.049-.68-.099-.61-.149-.61-.26 0-.498-.437-.567-.703a.592.592 0 01.418-.722zm2.903-25.894a.584.584 0 01-.507-.292c-.164-.283-.07-.339.21-.81a35.107 35.107 0 003.359-2.256.584.584 0 01.822.117.595.595 0 01-.116.829 36.272 36.272 0 01-3.472 2.331c.771.055-.195.081-.296.081zm2.082 11.759c1.214-1.238 2.42-1.88 3.585-2.567.279-.166.638.757.803.211.163.283.069.806-.21.81a47.931 47.931 0 01-3.674 1.958.582.582 0 01-.252.057c.473 0-.43.541-.53-.338-.14-.296-.015-.648.278-.131zm2.706 11.507a58.626 58.626 0 003.69-1.71c.292-.146.759-.029.788.263.146 1.03.029.648-.261.794a59.922 59.922 0 01-3.765 1.745c.467.032-.15.047-.226.047a.752.752 0 01-.542-.256c-.125-.409.016-.757.316-.883zm4.285-16.291c1.694-.786 2.178-1.63 3.204-2.506a.584.584 0 01.828.069.596.596 0 01-.069.834 48.516 48.516 0 01-3.284 2.568c-.103.074-.221.289-.339.289-.184 0-.365-.266-.479-.429a.595.595 0 01.139-.825zm2.97 12.616c2.014-.692 2.311-1.435 3.422-2.209a.583.583 0 01.817.151c.184.269.117.638.085.823-1.369.789-2.543 1.547-3.726 2.254a.59.59 0 01-.298.082c.114 0-.396-.104-.506-.29-.165.547-.073-.644.206-.811zm6.77-20.997a.594.594 0 01.074.833 48.385 48.385 0 01-2.798 3.1.586.586 0 01-.83.003.595.595 0 01-.003-.837c1.821-.963 2.001-1.981 2.73-3.024.981-.251.577-.286.827-.075zm-2.044-22.44a.592.592 0 01.438.711 36.323 36.323 0 01-1.191 4.036.588.588 0 01-.752.354.593.593 0 01-.352-.758 35.11 35.11 0 001.152-3.902c.353-.319.39-.056.705-.441zm-3.73-25.155a.584.584 0 01.795.238 28.102 28.102 0 011.769 3.962c.12.15-.026.495-.327.616.801.029.071.042-.218.042a.586.586 0 01-.545-.373 35.333 35.333 0 00-1.712-3.683.594.594 0 01.238-.802zM92 75.945c.29.975.407.502.262.795a36.667 36.667 0 01-2.08 3.647c.508.174-.301.268-.492.268a.584.584 0 01-.321-.096c.611-.179-.149-.429-.17-.82a35.028 35.028 0 002.013-3.53.585.585 0 01.788-.264zm-4.377 6.99c.248.21.282.582.074.834a36.335 36.335 0 01-2.853 3.07c-.113.109-.259.361-.404.361-.155 0-.31-.259-.3-.382-.349-.237-.34-.611.21-.837 1.35-.481 1.586-1.481 2.446-2.871.404-.35.577-.384.827-.175zm-.68-46.602a36.55 36.55 0 012.589 3.299.595.595 0 01-.143.824c-.103.073-.221.107.131.107-.653 0-.835-.087-.949-.252-.771-1.107-1.614-2.181-1.911-3.191-.81-.244-.788-.618-.546-.835.241.395.613.595.829.048zm8.488 22.412c.312-.02.829.246.929.573.12.39.19.782.18 1.175 0 1.398-.566 2.812-.724 4.198a.589.589 0 01-.582.525c-.023 0-.045-.002-.068-.004a.591.591 0 01-.516-.655 36.038 36.038 0 00.213-5.202c-.01-.075.244-.6.568-.61zm4.283 45.504c.239.031.61.201.829.036a.596.596 0 01-.036.837c-1.019 1.498-2.08 1.853-3.153 2.716a.584.584 0 01-.825-.095.595.595 0 01.094-.832c1.052-.241 2.092-1.74 3.091-2.662zm-.893-15.929a.585.585 0 01-.336-.107c-.265.047-.33-.556-.145-.824a47.432 47.432 0 002.173-3.453c.162-.284.817-.381.802-.218.28.163.377.525.216.808-.689 1.207-.611 2.398-2.228 4.134-.114-.429.297-.34-.482-.34zm1.12-53.375a.586.586 0 01.808.193 48.695 48.695 0 012.03 3.656c.146 1.066.029.648-.26.795a.582.582 0 01-.264.063c.145 0-.422-.119-.525-.325a46.88 46.88 0 00-1.98-3.567.595.595 0 01.191-.815zm3.985 41.579c.444-.307.448.056.752-.355.304.112.462.451.622.758-.741 1.311-1.04 2.615-1.855 3.877-.1.396-.312.342-.534.342-.082 0-.166-.017-.246.764-.294-.957-.422-1.308-.285-1.605.566-.555 1.087-2.502 1.546-3.781zm1.392 21.788c.207.298.577-.062.826-.078.25.209.284.581.077 1.436-.878.466-1.805 1.519-2.754 2.524-.115.122-.27.184-.047.184-.523 0-.669-.054-.782-.163a.594.594 0 01-.021-.837 59.647 59.647 0 002.701-3.066zm-.588-51.4c-.388-1.301-.837-2.6-1.335-3.392-.121-.771.026-1.115.328-1.236.487-.122.641.026.762.33a48.52 48.52 0 011.37 3.957.593.593 0 01-.563.762c.108 0-.485-.165-.562-.421zm1.956 21.237c.914.057.533.364.478.685a48.926 48.926 0 01-.891 4.093.589.589 0 01-.719.42c-.313-.084-.004-.408-.416-.724.345-1.307.637-2.65 1.562-3.992-.07-.322-.339.329-.014-.482zm3.934 23.505c-.387-.278-.026-.363.25-.192.276.172.361.537.73.815-1.261 1.176-2.036 2.347-2.843 3.479-.114.162-.294.544-.477.544-.119 0 .14-.333-.342-.408-.263-.19-.324-.56-.134-.232.791-1.705 1.551-2.852 2.816-4.006zm6.957-18.95c.277-1.333 1.293-2.574.694-4.038a.583.583 0 01.662-.505.591.591 0 01.501.667c-.188 1.373.366 2.759-.708 4.118a.588.588 0 01-.574.471c-.039 0 .568-.004.158-.012-.596-.067-.799-.155-.733-.701z"/></svg>