<svg xmlns="http://www.w3.org/2000/svg" width="25" height="25" fill="none" viewBox="0 0 25 25"><g clip-path="url(#a)"><path fill="#000" d="M4.565 0A4.555 4.555 0 0 0 0 4.565v15.87A4.555 4.555 0 0 0 4.565 25h8.601v-9.773h-2.584v-3.52h2.584V8.703c0-2.362 1.527-4.53 5.045-4.53 1.424 0 2.477.136 2.477.136l-.082 3.286s-1.075-.01-2.247-.01c-1.268 0-1.472.584-1.472 1.554v2.57h3.82l-.167 3.519h-3.652V25h3.547A4.555 4.555 0 0 0 25 20.435V4.565A4.555 4.555 0 0 0 20.435 0z"/></g><defs><clipPath id="a"><path fill="#fff" d="M0 0h25v25H0z"/></clipPath></defs></svg>