<svg xmlns="http://www.w3.org/2000/svg" width="25" height="25" fill="none" viewBox="0 0 25 25"><g clip-path="url(#a)"><path fill="#000" d="M22.321 0H2.68A2.68 2.68 0 0 0 0 2.679V22.32A2.68 2.68 0 0 0 2.679 25H22.32A2.68 2.68 0 0 0 25 22.321V2.68A2.68 2.68 0 0 0 22.321 0m-2.728 8.862c.01.156.01.318.01.474 0 4.838-3.682 10.413-10.412 10.413-2.076 0-4.001-.603-5.62-1.64.296.033.58.044.882.044 1.713 0 3.287-.58 4.543-1.563a3.665 3.665 0 0 1-3.421-2.539c.563.084 1.071.084 1.652-.067a3.66 3.66 0 0 1-2.93-3.593v-.045a3.7 3.7 0 0 0 1.652.463 3.65 3.65 0 0 1-1.63-3.047c0-.68.179-1.306.497-1.847a10.4 10.4 0 0 0 7.545 3.828c-.52-2.483 1.339-4.497 3.57-4.497 1.056 0 2.004.44 2.674 1.155a7.2 7.2 0 0 0 2.321-.882 3.65 3.65 0 0 1-1.607 2.014 7.3 7.3 0 0 0 2.11-.569 7.7 7.7 0 0 1-1.836 1.898"/></g><defs><clipPath id="a"><path fill="#fff" d="M0 0h25v25H0z"/></clipPath></defs></svg>