<svg xmlns="http://www.w3.org/2000/svg" width="25" height="25" fill="none" viewBox="0 0 25 25"><g clip-path="url(#a)"><path fill="#000" d="M16.337 0H8.664C1.657 0 0 1.658 0 8.663v7.674C0 23.342 1.658 25 8.663 25h7.674C23.342 25 25 23.342 25 16.337V8.664C25 1.657 23.324 0 16.337 0m3.846 17.837h-1.816c-.688 0-.9-.547-2.136-1.8-1.076-1.041-1.552-1.182-1.816-1.182-.371 0-.477.106-.477.618v1.64c0 .442-.141.707-1.306.707-1.923 0-4.058-1.165-5.557-3.336-2.258-3.175-2.877-5.557-2.877-6.05 0-.265.106-.512.618-.512h1.816c.459 0 .636.211.813.705.899 2.594 2.399 4.87 3.016 4.87.23 0 .336-.106.336-.688v-2.683c-.071-1.235-.724-1.34-.724-1.781 0-.213.177-.424.458-.424h2.859c.388 0 .529.211.529.67v3.617c0 .388.177.53.282.53.23 0 .424-.142.847-.565 1.306-1.465 2.24-3.723 2.24-3.723.125-.265.336-.511.795-.511H19.9c.547 0 .67.28.547.67-.23 1.059-2.452 4.198-2.452 4.198-.194.318-.265.459 0 .813.194.264.829.811 1.253 1.305.776.882 1.375 1.623 1.534 2.135.177.51-.088.775-.6.775z"/></g><defs><clipPath id="a"><path fill="#fff" d="M0 0h25v25H0z"/></clipPath></defs></svg>