<svg xmlns="http://www.w3.org/2000/svg" width="25" height="25" fill="none" viewBox="0 0 25 25"><path fill="#000" d="M19.715 18.653h-1.288l.006-.754a.61.61 0 0 1 .607-.608h.082a.61.61 0 0 1 .607.608zm-4.829-1.615c-.326 0-.593.221-.593.492v3.665c0 .27.267.49.593.49.328 0 .596-.22.596-.49V17.53c0-.27-.268-.492-.596-.492m7.841-2.05v6.972c0 1.672-1.439 3.04-3.198 3.04H6.38c-1.759 0-3.197-1.368-3.197-3.04v-6.972c0-1.672 1.438-3.04 3.198-3.04h13.15c1.758 0 3.197 1.368 3.197 3.04m-15.47 7.729-.001-7.344h1.63v-1.087l-4.346-.007v1.07l1.357.004v7.364zm4.886-6.25h-1.359v3.921c0 .568.034.851-.002.951-.11.304-.607.627-.8.033-.034-.104-.005-.418-.005-.957l-.006-3.948H8.62l.004 3.886c0 .596-.013 1.04.005 1.242.033.356.02.772.349 1.01.611.443 1.783-.067 2.077-.701l-.003.81h1.091zm4.348 4.49-.003-3.263c-.001-1.244-.924-1.99-2.178-.983l.005-2.426-1.357.002-.007 8.375 1.116-.016.102-.522c1.427 1.32 2.324.416 2.322-1.167m4.253-.432-1.02.005-.001.14v.572a.56.56 0 0 1-.557.557h-.2a.56.56 0 0 1-.557-.557v-1.507h2.333v-.885c0-.647-.016-1.293-.07-1.663-.166-1.17-1.795-1.356-2.618-.757a1.54 1.54 0 0 0-.57.774q-.175.504-.174 1.38v1.946c0 3.235 3.9 2.777 3.434-.005M15.517 9.96a.93.93 0 0 0 .327.416.94.94 0 0 0 .556.155.86.86 0 0 0 .52-.163q.226-.165.381-.491l-.025.537h1.515V3.922h-1.193v5.053a.5.5 0 0 1-.497.497.5.5 0 0 1-.496-.497V3.922H15.36V8.3q0 .836.027 1.118.025.28.13.54m-4.59-3.667q0-.935.153-1.46.155-.525.557-.843.402-.32 1.027-.32.525.001.902.205.378.205.58.533.207.33.281.676.076.35.076 1.063V7.79q0 .904-.07 1.327a2.1 2.1 0 0 1-.299.789 1.4 1.4 0 0 1-.583.54 1.85 1.85 0 0 1-.822.174q-.517 0-.876-.149-.36-.15-.558-.45a2 2 0 0 1-.285-.728q-.085-.426-.084-1.28v-1.72m1.186 2.58c0 .367.271.667.602.667s.601-.3.601-.668V5.416c0-.367-.27-.667-.601-.667s-.602.3-.602.667zM7.92 10.616h1.43v-4.98l1.69-4.265H9.475l-.895 3.17-.911-3.177H6.121L7.918 5.64z"/></svg>