<svg xmlns="http://www.w3.org/2000/svg" width="197" height="55" fill="none" viewBox="0 0 197 55"><g clip-path="url(#a)"><path fill="#6F7072" d="M62.575 48.9V29.534h-2.459v8.333h-8.424v-8.333h-2.459V48.9h2.459v-8.766h8.457V48.9zm14.619-9.867c0-3.033-1.311-4.6-5.31-4.6-1.508 0-3.278.234-4.557.634l.23 1.966c1.114-.233 2.852-.466 4.163-.466 2.261 0 3.015.633 3.015 2.4v2.2h-3.67c-2.82 0-4.262 1.066-4.262 4 0 2.5 1.114 4.066 3.704 4.066 1.672 0 3.278-.466 4.523-1.333l.164 1.067h2.032zm-2.426 6.934c-1.082.7-2.393 1.166-3.606 1.166-1.704 0-1.966-.6-1.966-2.033s.557-1.9 2.032-1.9h3.54zM92.206 48.9V38.033c0-2.166-.786-3.6-3.015-3.6-1.606 0-3.835.7-5.376 1.5v-7.3l-2.393.334v19.967h2.393V38.267c1.508-.767 3.639-1.467 4.655-1.467.885 0 1.344.367 1.344 1.3v10.834h2.392zm15.243 0V38.033c0-2.166-.787-3.6-3.016-3.6-1.639 0-4.065.734-5.605 1.534l-.23-1.2h-1.966v14.167h2.392v-10.7c1.508-.767 3.639-1.434 4.655-1.434.885 0 1.344.367 1.344 1.3v10.834h2.426zm6.129-4.933V42.8h8.293v-2.966c0-2.934-1.114-5.367-5.244-5.367-4.131 0-5.442 2.367-5.442 5.3V44c0 3.2 1.41 5.2 5.507 5.2 1.737 0 3.606-.3 4.917-.8l-.295-1.966c-1.541.4-3.016.666-4.392.666-2.721 0-3.344-.9-3.344-3.133m0-4.4c0-2 .787-3.067 3.049-3.067s2.917 1.133 2.917 3.067v1.166h-5.966zm31.304 9.333V38.033c0-2.166-.787-3.6-3.016-3.6-1.737 0-4.097.7-5.769 1.534-.393-.967-1.213-1.533-2.655-1.533-1.639 0-4.065.733-5.605 1.533l-.23-1.2h-1.966v14.167h2.393v-10.7c1.507-.767 3.638-1.434 4.654-1.434.885 0 1.344.367 1.344 1.3v10.834h2.393v-10.7c1.508-.767 3.507-1.434 4.654-1.434.885 0 1.344.367 1.344 1.3v10.834h2.459zm4.294-14.133v10.866c0 2.167.786 3.6 3.015 3.6 1.639 0 4.065-.733 5.606-1.533l.229 1.2h1.967V34.734H157.6v10.7c-1.508.766-3.639 1.433-4.655 1.433-.885 0-1.344-.367-1.344-1.3V34.734zm1.934-2.167h2.229v-2.433h-2.229zm4.949 0h2.229v-2.433h-2.229zm19.307 16.3V38.033c0-2.166-.787-3.6-3.016-3.6-1.606 0-3.835.7-5.375 1.5v-7.3l-2.393.334v19.967h2.393V38.267c1.507-.767 3.638-1.467 4.654-1.467.885 0 1.344.367 1.344 1.3v10.834h2.393zm6.851 0V28.6l-2.393.333V48.9zm6.228-4.933V42.8h8.293v-2.966c0-2.934-1.115-5.367-5.245-5.367s-5.441 2.367-5.441 5.3V44c0 3.2 1.409 5.2 5.507 5.2 1.737 0 3.605-.3 4.916-.8l-.295-1.966c-1.54.4-3.015.666-4.392.666-2.721 0-3.343-.9-3.343-3.133m0-4.4c0-2 .786-3.067 3.048-3.067s2.917 1.133 2.917 3.067v1.166h-5.965z"/><path fill="#E1001A" d="M38.548 22.033c-.23-2.6-1.344-4.9-3.18-6.4-1.639-1.367-3.737-2.033-5.769-1.767-2.491.267-4.523 2.2-5.802 3.767a18.5 18.5 0 0 0-2.95 5c-1.278-1.133-2.098-2.467-2.49-4.1-.329-1.4-.69-4.167-.951-6.167-.197-1.333-.296-2.4-.394-2.766-.262-1.234-1.082-3.334-1.606-4.434 1.147-.233 2.032-.533 2.885-1.366.852-.867 2.229-2.2 2.261-2.2l.82-.8-1.148-.1C19.996.666 14.16.233 13.177.266c-.688.034-1.54.4-2.229 1.067-.557.5-1.278 1.367-1.803 2.767-.524.1-5.277 1.033-5.277 1.033v1.033l.393.1C5.736 6.6 7.605 7.4 8.72 8.233l-.065.033c-.951.634-2.23 1.5-3.311 2.5-1.377 1.267-2.032 2.4-1.934 3.4.066.7.36 1.234.852 1.6.394.267.885.4 1.442.4-.655 1.167-1.016 2.067-1.278 2.934-.328 1.2-.459 2.4-.295 3.9.197 2.3 1.344 4.6 2.655 6.6H0v15.966c0 1.434.295 2.8.918 4 .557 1.134 1.344 2.1 2.327 2.934 1.77 1.466 4.13 2.333 6.326 2.333 2.197 0 4.557-.867 6.327-2.333.983-.8 1.77-1.8 2.327-2.934.557-1.1.852-2.3.918-3.566.13-2.134.852-5.3 1.967-7.767 1.245-2.8 2.917-4.267 5.047-4.467 1.148-.1 2.295.067 3.278.534.82.366 1.606.933 2.23 1.633 1.147 1.233 1.704 2.633 1.77 2.933v-.033l.393 1.3.557-1.133c.885-1.867 2.13-4.8 3.048-8.234 1.016-3.266 1.344-6.233 1.115-8.733M7.572 30.566l.23.3c.72.967 1.474 1.8 2.097 2.467l1.41 1.533c2.261 2.4 4.031 4.3 4.85 5.7 1.05 1.8 1.804 3.567 2.066 4.9.033.134.066.4.066.5-.132 2.867-1.607 4.667-2.885 5.734-1.606 1.333-3.737 2.133-5.704 2.133-1.999 0-4.097-.767-5.703-2.133-1.311-1.1-2.885-3.067-2.885-6.134V30.633zm1.704-21.5.23-.166c.164.233.262.433.262.666.066.8-.656 1.667-1.54 2.8-.59.734-1.246 1.6-1.902 2.6-.622.167-1.147.1-1.508-.166a1.2 1.2 0 0 1-.426-.834c-.065-.666.492-1.533 1.606-2.566 1.082-.867 2.36-1.7 3.278-2.334m27.338 21.467c-.721 2.733-1.672 5.2-2.524 6.967a9 9 0 0 0-1.508-2.167c-1.18-1.333-3.278-2.833-6.425-2.567-1.343.134-2.556.7-3.605 1.634-.852.8-1.606 1.966-2.262 3.4-.754 1.733-1.278 3.7-1.672 5.533a21.7 21.7 0 0 0-1.606-3.3c-.885-1.5-2.688-3.433-4.982-5.867l-1.41-1.533c-1.508-1.633-2.786-3.3-3.704-4.9C5.9 25.966 5.31 24.3 5.18 22.866c-.131-1.366-.033-2.433.262-3.533.262-1 .754-2.033 1.64-3.533.622-1.1 1.31-1.967 1.966-2.734 1.049-1.3 1.835-2.333 1.737-3.533-.098-1-.918-1.933-2.524-2.8-.688-.367-1.475-.7-2.196-.967 1.54-.3 3.54-.7 3.54-.7L9.9 5l.099-.267c.72-2.367 2.327-3.433 3.212-3.467.623-.033 3.605.2 5.769.334-.459.433-1.016 1-1.442 1.433-.689.7-1.475.9-2.623 1.167l-1.114.266.426.634c.23.333 1.41 3.133 1.77 4.7.098.333.23 1.433.36 2.666.263 2.134.623 4.834.984 6.3.492 2.1 1.54 3.734 3.343 5.1l.59.434.099-.367c.491-1.633 1.835-4.033 3.146-5.633 1.148-1.434 3.016-3.167 5.147-3.434 1.737-.233 3.573.367 5.015 1.567 1.606 1.333 2.622 3.367 2.819 5.7.262 2.367-.066 5.2-.885 8.4M13.275 5.9c-.065-.8-.786-1.434-1.606-1.334-.787.067-1.41.8-1.31 1.634.065.8.786 1.433 1.605 1.333.787-.1 1.377-.833 1.311-1.633M12.26 6c.033.233-.164.466-.393.5-.23.033-.459-.167-.492-.4-.033-.234.164-.467.394-.5.262-.067.458.1.491.4M8.424 47.433v.233c0 .334-.033.5-.655.5a3.7 3.7 0 0 1-1.017-.133l-.098.7c.295.1.688.167 1.147.167 1.18 0 1.443-.434 1.443-1.167v-.4c0-.6-.23-1-1.017-1.033-.229 0-.36-.034-.59-.034v-1.1h1.541v-.7H6.785v2.467c.328 0 .59 0 1.05.033.524.034.59.134.59.467M3.54 48.8h2.557v-.7h-.885v-3.634H4.49l-1.082.334.197.7.82-.234V48.1h-.853v.7zm6.36-1.334v.267c0 .767.36 1.133 1.409 1.133s1.41-.3 1.41-1.133v-.267c0-.366-.132-.633-.624-.866.426-.234.525-.5.525-.834v-.3c0-.666-.328-1.066-1.279-1.066s-1.278.4-1.278 1.066v.3c0 .334.131.6.524.834-.557.233-.688.5-.688.866m1.933-1.7c0 .234-.065.334-.524.534-.46-.2-.525-.267-.525-.534V45.5c0-.267.098-.4.525-.4.426 0 .524.166.524.4zm-1.147 1.767c0-.267.065-.4.623-.633.557.233.622.333.622.633v.2c0 .333-.163.433-.622.433-.46 0-.623-.133-.623-.433zm3.999-3.067-1.54 2.6v.734h1.868v.966h.786V47.8h.525v-.7h-.525v-2.667h-1.114zm-.721 2.667 1.049-1.9v1.9z"/></g><defs><clipPath id="a"><path fill="#fff" d="M0 0h197v55H0z"/></clipPath></defs></svg>