<svg xmlns="http://www.w3.org/2000/svg" width="186" height="53" fill="none" viewBox="0 0 186 53"><path fill="#558EC0" fill-rule="evenodd" d="M35.238 7c3.077 1.904 6.847 7.032 8.155 10.84 1.539 4.25.077 8.424-3.54 11.5-5.923 4.982-9.693 8.424-12.463 11.574-2.155 2.49-4.847 5.64-4.617 12.086-5.693-6.52-6.77-16.554-.615-23.073 6.617-7.032 7.848-8.497 10.31-11.573 2.308-2.93 3.154-7.106 2.77-11.354M9.501 39C-6.489 25.474-2.12 6.688 21.28 1.353 23.775.75 24.867.526 26.115 0c1.326 2.63 1.482 4.659-1.794 6.838C16.13 12.173 3.729 19.462 9.5 39" clip-rule="evenodd"/><path fill="#053D5B" fill-rule="evenodd" d="M67.918 42.335c-1.309.517-1.964.665-3.927.665C56.218 43 50 37.165 50 30s6.3-13 13.99-13c1.31 0 2.62.148 4.01.59v6.427c-1.227-.665-2.454-.96-4.01-.96-4.254 0-7.69 3.102-7.69 6.943s3.436 6.943 7.69 6.943c1.8 0 2.7-.295 3.846-.886zM156 30c0 7.165-6.079 13-13.5 13-7.5 0-13.5-5.835-13.5-13s6.079-13 13.5-13S156 22.835 156 30m-13.579-6.943c-4.105 0-7.421 3.102-7.421 6.943s3.316 6.943 7.421 6.943 7.421-3.102 7.421-6.943-3.316-6.943-7.421-6.943M98.89 42.925H92V27.04C92 21.72 96.676 17 102.5 17S113 21.72 113 27.04V43h-6.891V27.04c0-2.322-1.64-3.746-3.691-3.746s-3.691 1.648-3.691 3.746zm65.672 0H158V27.04c0-5.32 4.453-10.04 10-10.04s10 4.72 10 10.04V43h-6.562V27.04c0-2.247-1.563-3.746-3.516-3.746s-3.516 1.648-3.516 3.746zm-87.999-6.743v6.743H70V27.04C70 21.72 74.453 17 80 17s10 4.72 10 10.04V43h-6.562v-6.893h-6.876zm6.953-5.92v-3.147c0-2.248-1.563-3.746-3.516-3.746-1.797 0-3.516 1.648-3.516 3.746v3.222h7.032zm40.679-3.687 2.061 3.631c3.567 6.053-.079 14.526-11.256 12.483v-5.976c4.598 1.664 7.134-.681 5.152-4.388 0 0-1.426-2.497-2.536-4.388-2.695-4.54.713-12.257 10.384-10.744v6.129c-2.457-1.74-5.707 0-3.805 3.253" clip-rule="evenodd"/><path fill="#053D5B" d="M186 20.5c0 .735-.353 1.323-.882 1.765-.53.44-1.324.735-2.118.735-.882 0-1.588-.294-2.118-.735-.529-.442-.882-1.103-.882-1.765 0-.735.353-1.323.882-1.765.53-.44 1.324-.735 2.118-.735s1.588.294 2.118.735c.529.442.882 1.03.882 1.765m-1.147 1.618c.529-.441.794-.956.794-1.618 0-.588-.265-1.177-.794-1.618-.529-.44-1.147-.661-1.941-.661s-1.412.22-1.941.661-.795.956-.795 1.618.265 1.177.795 1.618c.529.44 1.147.661 1.941.661s1.412-.294 1.941-.661"/><path fill="#053D5B" fill-rule="evenodd" d="M182.471 19.395h.647c.235 0 .411.079.411.473 0 .316-.117.474-.411.474h-.647zM182.059 22h.412v-1.263h.588c.353 0 .47.237.47.79 0 .157 0 .315.059.473H184a2.6 2.6 0 0 1-.118-.79c0-.473-.176-.631-.353-.631.059 0 .353-.158.353-.79 0-.552-.235-.789-.764-.789H182v3z" clip-rule="evenodd"/></svg>