<svg xmlns="http://www.w3.org/2000/svg" width="225" height="21" fill="none" viewBox="0 0 225 21"><g clip-path="url(#a)"><path fill="#333" d="m13.552 20.145-2.509.66-5.466-8.244-3.07-.077.15 7.972-2.47.194V.506L4.977.35C7.15.272 8.834.778 9.995 1.79c1.16 1.05 1.76 2.45 1.76 4.121 0 1.128-.375 2.217-1.086 3.306-.711 1.128-1.722 1.983-3.07 2.528v.078zM2.62 1.945l-.15 9.178 3.744-.156c1.348-.389 2.957-2.022 2.957-4.433 0-2.684-1.684-4.434-4.492-4.512zm22.575 18.86c-5.391 0-9.622-4.16-9.622-10.382 0-5.717 4.792-10.384 10.183-10.384 5.429 0 9.66 4.2 9.66 10.422-.038 5.756-5.055 10.345-10.221 10.345m.374-1.671c4.23 0 7.188-3.267 7.188-8.478S29.313 1.71 25.382 1.71c-4.193 0-7.188 3.228-7.188 8.517 0 5.095 3.519 8.906 7.375 8.906m20.441 1.322-2.47.194v-9.566L36.238.7l2.658-.35 6.14 9.295L51.364.35l2.134.35-7.526 10.5zm24.26-.04-2.584.273-1.909-5.328-9.322.195-1.91 5.094-2.133-.233L60.76.35l1.124-.272zM61.021 3.812l-3.856 9.956 8.012.155zm17.82 16.645-5.128.155V.545l2.47-.195-.112 8.517.075 10.033 8.236-.31-.187 1.905zm56.943 0-2.471.194V2.022l-7.487.273.187-1.945h8.311l8.723-.194-.187 2.06-7.038-.271-.15 7.389zm23.848-.04-2.583.273-1.909-5.328-9.322.195-1.91 5.094-2.134-.233L150.124.35l1.123-.272zm-9.247-16.605-3.856 9.956 8.012.155zm17.82 16.645-5.129.155V.545l2.471-.195-.112 8.478.075 10.033 8.236-.31-.187 1.905zm12.317 0-3.257.155V.506l4.642-.156h5.766l-.187 1.945-7.75-.311-.187 7.622 6.739-.195-.412 1.906-6.365-.194.188 7.738 8.61-.272-.187 1.906h-7.6zm13.89 0-2.209.194.187-20.105 1.797-.195 11.943 15.556-.225-15.361 2.209-.195-.262 20.106-.824.155L194.15 4.357zm23.436.194a8.4 8.4 0 0 1-3.332-.7c-1.086-.466-1.91-1.05-2.509-1.633l1.198-1.361c1.498 1.166 3.108 2.06 5.279 2.06 2.396 0 4.043-1.127 4.043-3.343 0-1.167-.412-2.062-1.16-2.606-.749-.544-1.797-1.089-3.07-1.633-2.658-1.09-5.503-2.217-5.503-5.912 0-2.955 2.583-5.327 6.102-5.327 1.834 0 3.744.544 4.867 1.4l-.45 1.75c-1.123-.545-3.294-1.361-4.941-1.361-1.835 0-3.37.894-3.37 2.838 0 1.245.412 2.14 1.161 2.684.749.583 1.797 1.128 3.032 1.672 2.621 1.167 5.541 2.1 5.541 5.717.038 3.81-3.294 5.755-6.888 5.755"/><path fill="red" d="M95.279.078v20.494h19.729V.078zm9.846 19.639c-5.017 0-9.06-4.2-9.06-9.412 0-5.21 4.043-9.41 9.06-9.41 5.016 0 9.06 4.2 9.06 9.41 0 5.212-4.044 9.412-9.06 9.412m-7.937-7.74c.187.934 1.086 3.19 2.62 2.645 1.124-.428 1.199-1.517 1.423-2.761.187-1.167.487-3.383.861-3.85.038-.039 0-.078-.037-.078-.899.04-1.498 2.14-1.835 3.111-.636 1.906-2.583 2.061-2.92.895 0 0-.112 0-.112.039m15.724-3.305c-.225-.505-.375-.7-.599-1.167.187-.544.412-1.283.374-1.594-.15-1.322-1.872.078-1.497 1.789.112.467.224.817.299 1.128-.524 1.089-.749.894-.711.505.037-.272.075-.816.075-.816.149-1.05-.375-1.128-.712-.895-.187.117-.449.506-.561.739l.112-.506-.936.39-.299 1.594c-.375.894-.786 1.05-1.049 1.01l-.224-.116c.861-.778 1.16-1.439 1.086-1.905-.075-.506-.45-.506-.712-.428-.674.233-1.235.933-1.385 1.905-.037.312-.037.623.037.856-.599.972-.636.428-.561.039.187-.895.786-4.589.786-4.589l-.936.389s-.561 3.228-.786 4.472c-.449 1.128-.562.7-.487.311.15-.894.375-2.06.375-2.06l-.899.35s-.075.271-.15.738c-.112-.35-.337-.583-.636-.622-.562-.078-1.161.7-1.348 1.633-.187.972.113 1.828.674 1.867.412.039.824-.311 1.086-.856.15.35.524.311.749.156.224-.156.449-.545.599-.856.074.467.449.467.711.311.412-.233.786-.777.973-1.01.15.271.412.427.712.388.411-.039.898-.583 1.272-1.205l-.149.738.936-.388.337-1.79c.449-1.127.599-.738.561-.388 0 0-.037.31-.112.816-.113 1.05.337 1.09.674.895.486-.311.786-.895 1.048-1.439.187.467.412.856.599 1.439 1.348 3.928-3.744 3.539-5.765 3.617-1.872.077-2.06 1.75-2.247 3.033 6.964.078 10.108-5.25 8.686-8.478m-9.509 2.995c-.038.466-.337.972-.599.972s-.45-.39-.375-.934c.075-.466.3-.894.562-.894s.449.389.412.856m3.669-1.245c-.038-.117-.038-.233-.038-.389.038-.466.262-.972.562-1.05.112-.039.224 0 .224.195 0 .427-.412.933-.748 1.244m5.091-3.267c-.037-.038-.037-.077-.037-.116-.562-1.4.187-1.595.262-1.011 0 .31-.075.739-.225 1.127m-6.065-4.005c-.112.894-.187 2.761-1.872 3.033-2.77.467-6.476 1.711-7.075 4.511 0 .04-.113.04-.113.04-.075-4.395 3.707-7.584 9.06-7.584"/></g><defs><clipPath id="a"><path fill="#fff" d="M0 0h225v21H0z"/></clipPath></defs></svg>