<svg xmlns="http://www.w3.org/2000/svg" width="209" height="26" fill="none" viewBox="0 0 209 26"><g fill-rule="evenodd" clip-path="url(#a)" clip-rule="evenodd"><path fill="#000" d="M126.092 25.924h-2.257V.076h2.257zM179.734.076v21.667L159.571.076V0h-2.332v25.924h2.332V4.03l20.163 21.895v-.077.077h2.332V.076zm-27.611 0v.076l-23.925 25.695h3.46L152.123 3.27v14.975h-10.081v2.357h10.081v5.246h2.255V.076zm-37.917 14.062h.15c3.762 0 6.845-3.42 6.845-7.22 0-3.65-2.859-6.69-6.396-6.842V0H95.924v25.924h2.332V2.357h16.4a4.6 4.6 0 0 1 2.857 1.53 4.58 4.58 0 0 1 1.131 3.032c0 2.433-1.881 4.789-4.364 4.941h-3.159v2.585h.074l6.696 11.403h3.688zM81.027 0 68.464.076v25.847h18.883c3.61-.228 6.394-3.27 6.394-6.92a6.82 6.82 0 0 0-3.235-5.853c1.955-1.215 3.235-3.724 3.235-6.232 0-3.65-2.784-6.615-6.32-6.842V0zm0 23.566H70.795V2.357h16.476a4.6 4.6 0 0 1 2.857 1.53 4.57 4.57 0 0 1 1.13 3.032c0 2.508-2.031 4.865-4.515 4.941v2.583c2.483 0 4.515 2.053 4.515 4.56 0 2.357-1.806 4.258-4.062 4.563z"/><path fill="#00ACEC" d="M0 0v25.847h2.333l20.463-21.97v14.367h-9.931v2.357h9.931v5.246h2.258V0zm2.333 22.35v-8.818h8.275zm0-11.175V2.356H21.14l-8.275 8.819z"/><path fill="#000" d="M196.21 0c-7.071 0-12.865 5.778-12.865 12.925 0 7.144 5.794 13 12.865 13s12.79-5.856 12.79-13C209 5.778 203.281 0 196.21 0m0 23.186c-5.568 0-10.006-4.56-10.006-10.11 0-5.626 4.438-10.11 10.006-10.11 5.492 0 10.006 4.484 10.006 10.11 0 5.55-4.514 10.11-10.006 10.11M58.758 2.509V.152H33.555v25.772h2.257V14.063H50.66L39.723 25.847h3.461L63.573 3.27v14.975H53.567v2.357h10.006l.15 5.399h2.332L65.905.076h-2.332v.076L52.847 11.707H35.812V2.509z"/></g><defs><clipPath id="a"><path fill="#fff" d="M0 0h209v26H0z"/></clipPath></defs></svg>