<svg xmlns="http://www.w3.org/2000/svg" width="16" height="16" fill="#fe3e57"><path d="M5.258 12.027a1.497 1.497 0 00-1.395.2 7.736 7.736 0 01-1.23.71 5.62 5.62 0 00.351-1.542 1.515 1.515 0 00-.367-1.11C1.887 9.461 1.5 8.5 1.5 7.5c0-2.484 2.602-5 6.5-5s6.5 2.516 6.5 5-2.602 5-6.5 5a8.03 8.03 0 01-2.742-.473zM.82 13.242a3.407 3.407 0 01-.156.254l-.012.016c-.05.074-.097.144-.148.215a4.14 4.14 0 01-.356.421.503.503 0 00.36.855c.156 0 .316-.01.476-.026h.024c.137-.016.273-.036.41-.063.027 0 .05-.008.074-.016a7.824 7.824 0 001.567-.5 9.681 9.681 0 001.699-.957c.992.36 2.094.559 3.25.559 4.422 0 8-2.91 8-6.5S12.418 1 8 1C3.582 1 0 3.91 0 7.5c0 1.41.555 2.71 1.492 3.777-.062.766-.36 1.45-.672 1.965zM4.5 8.5c.55 0 1-.45 1-1s-.45-1-1-1-1 .45-1 1 .45 1 1 1zm4.5-1c0-.55-.45-1-1-1s-1 .45-1 1 .45 1 1 1 1-.45 1-1zm2.5 1c.55 0 1-.45 1-1s-.45-1-1-1-1 .45-1 1 .45 1 1 1zm0 0"/></svg>