<svg xmlns="http://www.w3.org/2000/svg" width="18" height="20" fill='#fe3e57'><path d="M7.574 3.75H3.375v6.93L.008 7.91C.062 7.203.39 6.547.91 6.121l.777-.64V3.75c0-1.035.758-1.875 1.688-1.875h2.691L7.82.434A1.856 1.856 0 019 0c.426 0 .836.152 1.18.43l1.754 1.445h2.691c.93 0 1.688.84 1.688 1.875v1.73l.777.641c.52.426.848 1.082.902 1.79l-3.367 2.769V3.75zM0 17.5V9.457l7.648 6.297c.391.32.868.496 1.352.496.484 0 .96-.172 1.352-.496L18 9.457V17.5c0 1.379-1.008 2.5-2.25 2.5H2.25C1.008 20 0 18.879 0 17.5zM6.188 6.25h5.625c.308 0 .562.281.562.625s-.254.625-.563.625H6.189c-.31 0-.563-.281-.563-.625s.254-.625.563-.625zm0 2.5h5.625c.308 0 .562.281.562.625s-.254.625-.563.625H6.189c-.31 0-.563-.281-.563-.625s.254-.625.563-.625zm0 0"/></svg>