<svg xmlns="http://www.w3.org/2000/svg" width="16" height="14"><path d="M14.355 4.148c.012.125.012.25.012.375 0 3.793-3.3 8.16-9.332 8.16-1.86 0-3.582-.468-5.035-1.285.266.028.52.036.793.036 1.531 0 2.941-.454 4.07-1.227-1.441-.027-2.648-.852-3.066-1.988.203.023.406.043.621.043.293 0 .586-.035.86-.098-1.5-.266-2.63-1.422-2.63-2.816v-.035a3.64 3.64 0 001.485.363C1.25 5.16.672 4.28.672 3.286c0-.532.16-1.02.445-1.446 1.613 1.738 4.04 2.879 6.762 3a2.822 2.822 0 01-.082-.656c0-1.582 1.46-2.868 3.277-2.868.946 0 1.797.344 2.399.907a7.107 7.107 0 002.082-.696c-.246.668-.762 1.227-1.442 1.582A7.313 7.313 0 0016 2.664a6.596 6.596 0 01-1.645 1.484zm0 0"/></svg>